<?xml version="1.0" encoding="utf-8"?>
<!-- Generator: Adobe Illustrator 25.2.3, SVG Export Plug-In . SVG Version: 6.00 Build 0)  -->
<svg version="1.1" id="Lag_1" xmlns="http://www.w3.org/2000/svg" xmlns:xlink="http://www.w3.org/1999/xlink" x="0px" y="0px"
	 viewBox="0 0 35 200" style="enable-background:new 0 0 35 200;" xml:space="preserve">
<style type="text/css">
	.st0ash{fill:#BCBCBB;}
	.st1ash{fill:#5C5C5C;}
	.st2ash{fill:#9C9B9B;}
	.st3ash{fill:#010202;}
	.st4ash{fill:#ADADAD;}
	.st5ash{fill:#8D8D8E;}
	.st6ash{fill:#7A7A7A;}
	.st7ash{fill:#A7B847;}
	.st8ash{fill:#9BA345;}
	.st9ash{fill:#3F3F3F;}
	.st10ash{fill:#848484;}
	.st11ash{fill:#282828;}
	.st12ash{fill:#9E9E9D;}
</style>
<path class="st0ash" d="M28.8,200H14.7c-1.3,0-2.3-1-2.3-2.3V197c0-1.3,1-2.3,2.3-2.3h14.1c1.3,0,2.3,1,2.3,2.3v0.7
	C31.1,199,30,200,28.8,200z"/>
<rect x="14.6" y="197.2" transform="matrix(-1.836970e-16 1 -1 -1.836970e-16 214.5722 180.1362)" class="st1ash" width="5.2" height="0.3"/>
<rect x="14.1" y="197.2" transform="matrix(-1.836970e-16 1 -1 -1.836970e-16 214.0499 180.6585)" class="st1ash" width="5.2" height="0.3"/>
<rect x="13.6" y="197.2" transform="matrix(-1.836970e-16 1 -1 -1.836970e-16 213.5413 181.1671)" class="st1ash" width="5.2" height="0.3"/>
<rect x="13.1" y="197.2" transform="matrix(-1.836970e-16 1 -1 -1.836970e-16 213.019 181.6894)" class="st1ash" width="5.2" height="0.3"/>
<rect x="12.4" y="197.2" transform="matrix(-1.836970e-16 1 -1 -1.836970e-16 212.4142 182.2942)" class="st1ash" width="5.2" height="0.3"/>
<rect x="11.9" y="197.2" transform="matrix(-1.836970e-16 1 -1 -1.836970e-16 211.8919 182.8165)" class="st1ash" width="5.2" height="0.3"/>
<rect x="17.8" y="197.2" transform="matrix(-1.836970e-16 1 -1 -1.836970e-16 217.7534 176.955)" class="st1ash" width="5.2" height="0.3"/>
<rect x="17.3" y="197.2" transform="matrix(-1.836970e-16 1 -1 -1.836970e-16 217.2311 177.4773)" class="st1ash" width="5.2" height="0.3"/>
<rect x="16.8" y="197.2" transform="matrix(-1.836970e-16 1 -1 -1.836970e-16 216.7225 177.9858)" class="st1ash" width="5.2" height="0.3"/>
<rect x="16.2" y="197.2" transform="matrix(-1.836970e-16 1 -1 -1.836970e-16 216.2002 178.5081)" class="st1ash" width="5.2" height="0.3"/>
<rect x="15.6" y="197.2" transform="matrix(-1.836970e-16 1 -1 -1.836970e-16 215.5955 179.1129)" class="st1ash" width="5.2" height="0.3"/>
<rect x="15.1" y="197.2" transform="matrix(-1.836970e-16 1 -1 -1.836970e-16 215.0731 179.6353)" class="st1ash" width="5.2" height="0.3"/>
<rect x="21" y="197.2" transform="matrix(-1.836970e-16 1 -1 -1.836970e-16 220.9551 173.7533)" class="st1ash" width="5.2" height="0.3"/>
<rect x="20.5" y="197.2" transform="matrix(-1.836970e-16 1 -1 -1.836970e-16 220.4328 174.2756)" class="st1ash" width="5.2" height="0.3"/>
<rect x="20" y="197.2" transform="matrix(-1.836970e-16 1 -1 -1.836970e-16 219.9242 174.7842)" class="st1ash" width="5.2" height="0.3"/>
<rect x="19.4" y="197.2" transform="matrix(-1.836970e-16 1 -1 -1.836970e-16 219.4019 175.3065)" class="st1ash" width="5.2" height="0.3"/>
<rect x="18.8" y="197.2" transform="matrix(-1.836970e-16 1 -1 -1.836970e-16 218.7971 175.9113)" class="st1ash" width="5.2" height="0.3"/>
<rect x="18.3" y="197.2" transform="matrix(-1.836970e-16 1 -1 -1.836970e-16 218.2748 176.4336)" class="st1ash" width="5.2" height="0.3"/>
<rect x="24.2" y="197.2" transform="matrix(-1.836970e-16 1 -1 -1.836970e-16 224.2129 170.4955)" class="st1ash" width="5.2" height="0.3"/>
<rect x="23.7" y="197.2" transform="matrix(-1.836970e-16 1 -1 -1.836970e-16 223.6906 171.0178)" class="st1ash" width="5.2" height="0.3"/>
<rect x="23.2" y="197.2" transform="matrix(-1.836970e-16 1 -1 -1.836970e-16 223.182 171.5264)" class="st1ash" width="5.2" height="0.3"/>
<rect x="22.7" y="197.2" transform="matrix(-1.836970e-16 1 -1 -1.836970e-16 222.6597 172.0487)" class="st1ash" width="5.2" height="0.3"/>
<rect x="22.1" y="197.2" transform="matrix(-1.836970e-16 1 -1 -1.836970e-16 222.0549 172.6535)" class="st1ash" width="5.2" height="0.3"/>
<rect x="21.6" y="197.2" transform="matrix(-1.836970e-16 1 -1 -1.836970e-16 221.5326 173.1758)" class="st1ash" width="5.2" height="0.3"/>
<rect x="26.4" y="197.2" transform="matrix(-1.836970e-16 1 -1 -1.836970e-16 226.3275 168.3809)" class="st1ash" width="5.2" height="0.3"/>
<rect x="25.8" y="197.2" transform="matrix(-1.836970e-16 1 -1 -1.836970e-16 225.8051 168.9032)" class="st1ash" width="5.2" height="0.3"/>
<rect x="25.2" y="197.2" transform="matrix(-1.836970e-16 1 -1 -1.836970e-16 225.2004 169.508)" class="st1ash" width="5.2" height="0.3"/>
<rect x="24.7" y="197.2" transform="matrix(-1.836970e-16 1 -1 -1.836970e-16 224.678 170.0303)" class="st1ash" width="5.2" height="0.3"/>
<rect x="9.5" y="131.8" class="st2ash" width="24.7" height="64.7"/>
<rect x="11.7" y="186.3" class="st1ash" width="3.9" height="0.8"/>
<rect x="11.7" y="187.8" class="st1ash" width="3.9" height="0.8"/>
<rect x="11.7" y="189.2" class="st1ash" width="3.9" height="0.8"/>
<rect x="11.7" y="190.6" class="st1ash" width="3.9" height="0.8"/>
<rect x="11.7" y="192.3" class="st1ash" width="3.9" height="0.8"/>
<rect x="11.7" y="193.7" class="st1ash" width="3.9" height="0.8"/>
<rect x="20.2" y="186.3" class="st1ash" width="3.9" height="0.8"/>
<rect x="20.2" y="187.8" class="st1ash" width="3.9" height="0.8"/>
<rect x="20.2" y="189.2" class="st1ash" width="3.9" height="0.8"/>
<rect x="20.2" y="190.6" class="st1ash" width="3.9" height="0.8"/>
<rect x="20.2" y="192.3" class="st1ash" width="3.9" height="0.8"/>
<rect x="20.2" y="193.7" class="st1ash" width="3.9" height="0.8"/>
<rect x="27.8" y="186.5" class="st1ash" width="3.9" height="0.8"/>
<rect x="27.8" y="188" class="st1ash" width="3.9" height="0.8"/>
<rect x="27.8" y="189.4" class="st1ash" width="3.9" height="0.8"/>
<rect x="27.8" y="190.8" class="st1ash" width="3.9" height="0.8"/>
<rect x="27.8" y="192.5" class="st1ash" width="3.9" height="0.8"/>
<rect x="27.8" y="193.9" class="st1ash" width="3.9" height="0.8"/>
<rect x="9.5" y="131.8" class="st3ash" width="3.3" height="64.6"/>
<rect x="30.9" y="131.8" class="st3ash" width="3.3" height="64.6"/>
<rect x="14.4" y="131.8" class="st3ash" width="3.3" height="64.6"/>
<rect x="16.8" y="131.8" class="st3ash" width="3.3" height="64.6"/>
<rect x="23.5" y="131.8" class="st3ash" width="3.3" height="64.6"/>
<rect x="25.9" y="131.8" class="st3ash" width="3.3" height="64.6"/>
<rect x="12.7" y="126.2" class="st4ash" width="18.8" height="5.5"/>
<rect x="11.1" y="90.2" class="st4ash" width="7.5" height="36.1"/>
<rect x="26.8" y="90.2" class="st4ash" width="5.8" height="12.3"/>
<rect x="26.8" y="114.4" class="st4ash" width="5.8" height="11.9"/>
<g>
	<rect x="12" y="102.2" class="st4ash" width="5.6" height="12.2"/>
	<ellipse class="st2ash" cx="12.8" cy="103.1" rx="0.6" ry="0.7"/>
	<ellipse class="st2ash" cx="14.1" cy="103.1" rx="0.6" ry="0.7"/>
	<ellipse class="st2ash" cx="15.4" cy="103.1" rx="0.6" ry="0.7"/>
	<ellipse class="st2ash" cx="16.7" cy="103.1" rx="0.6" ry="0.7"/>
	<ellipse class="st2ash" cx="12.8" cy="104.6" rx="0.6" ry="0.7"/>
	<ellipse class="st2ash" cx="14.1" cy="104.6" rx="0.6" ry="0.7"/>
	<ellipse class="st2ash" cx="15.4" cy="104.6" rx="0.6" ry="0.7"/>
	<ellipse class="st2ash" cx="16.7" cy="104.6" rx="0.6" ry="0.7"/>
	<ellipse class="st2ash" cx="12.8" cy="106" rx="0.6" ry="0.7"/>
	<ellipse class="st2ash" cx="14.1" cy="106" rx="0.6" ry="0.7"/>
	<ellipse class="st2ash" cx="15.4" cy="106" rx="0.6" ry="0.7"/>
	<ellipse class="st2ash" cx="16.7" cy="106" rx="0.6" ry="0.7"/>
	<ellipse class="st2ash" cx="12.9" cy="107.5" rx="0.6" ry="0.7"/>
	<ellipse class="st2ash" cx="14.2" cy="107.5" rx="0.6" ry="0.7"/>
	<ellipse class="st2ash" cx="15.5" cy="107.5" rx="0.6" ry="0.7"/>
	<ellipse class="st2ash" cx="16.8" cy="107.5" rx="0.6" ry="0.7"/>
	<ellipse class="st2ash" cx="12.8" cy="108.9" rx="0.6" ry="0.7"/>
	<ellipse class="st2ash" cx="14.1" cy="108.9" rx="0.6" ry="0.7"/>
	<ellipse class="st2ash" cx="15.4" cy="108.9" rx="0.6" ry="0.7"/>
	<ellipse class="st2ash" cx="16.7" cy="108.9" rx="0.6" ry="0.7"/>
	<ellipse class="st2ash" cx="12.9" cy="110.4" rx="0.6" ry="0.7"/>
	<ellipse class="st2ash" cx="14.2" cy="110.4" rx="0.6" ry="0.7"/>
	<ellipse class="st2ash" cx="15.5" cy="110.4" rx="0.6" ry="0.7"/>
	<ellipse class="st2ash" cx="16.8" cy="110.4" rx="0.6" ry="0.7"/>
	<ellipse class="st2ash" cx="12.9" cy="111.8" rx="0.6" ry="0.7"/>
	<ellipse class="st2ash" cx="14.2" cy="111.8" rx="0.6" ry="0.7"/>
	<ellipse class="st2ash" cx="15.5" cy="111.8" rx="0.6" ry="0.7"/>
	<ellipse class="st2ash" cx="16.8" cy="111.8" rx="0.6" ry="0.7"/>
	<ellipse class="st2ash" cx="13" cy="113.3" rx="0.6" ry="0.7"/>
	<ellipse class="st2ash" cx="14.3" cy="113.3" rx="0.6" ry="0.7"/>
	<ellipse class="st2ash" cx="15.6" cy="113.3" rx="0.6" ry="0.7"/>
	<ellipse class="st2ash" cx="16.9" cy="113.3" rx="0.6" ry="0.7"/>
</g>
<g>
	<rect x="26.8" y="102.2" class="st5ash" width="5.6" height="12.2"/>
	<ellipse class="st6ash" cx="27.6" cy="103.1" rx="0.6" ry="0.7"/>
	<ellipse class="st6ash" cx="28.9" cy="103.1" rx="0.6" ry="0.7"/>
	<ellipse class="st6ash" cx="30.2" cy="103.1" rx="0.6" ry="0.7"/>
	<ellipse class="st6ash" cx="31.5" cy="103.1" rx="0.6" ry="0.7"/>
	<ellipse class="st6ash" cx="27.7" cy="104.6" rx="0.6" ry="0.7"/>
	<ellipse class="st6ash" cx="29" cy="104.6" rx="0.6" ry="0.7"/>
	<ellipse class="st6ash" cx="30.3" cy="104.6" rx="0.6" ry="0.7"/>
	<ellipse class="st6ash" cx="31.6" cy="104.6" rx="0.6" ry="0.7"/>
	<ellipse class="st6ash" cx="27.7" cy="106" rx="0.6" ry="0.7"/>
	<ellipse class="st6ash" cx="29" cy="106" rx="0.6" ry="0.7"/>
	<ellipse class="st6ash" cx="30.2" cy="106" rx="0.6" ry="0.7"/>
	<ellipse class="st6ash" cx="31.5" cy="106" rx="0.6" ry="0.7"/>
	<ellipse class="st6ash" cx="27.7" cy="107.5" rx="0.6" ry="0.7"/>
	<ellipse class="st6ash" cx="29" cy="107.5" rx="0.6" ry="0.7"/>
	<ellipse class="st6ash" cx="30.3" cy="107.5" rx="0.6" ry="0.7"/>
	<ellipse class="st6ash" cx="31.6" cy="107.5" rx="0.6" ry="0.7"/>
	<ellipse class="st6ash" cx="27.7" cy="108.9" rx="0.6" ry="0.7"/>
	<ellipse class="st6ash" cx="29" cy="108.9" rx="0.6" ry="0.7"/>
	<ellipse class="st6ash" cx="30.3" cy="108.9" rx="0.6" ry="0.7"/>
	<ellipse class="st6ash" cx="31.6" cy="108.9" rx="0.6" ry="0.7"/>
	<ellipse class="st6ash" cx="27.7" cy="110.4" rx="0.6" ry="0.7"/>
	<ellipse class="st6ash" cx="29" cy="110.4" rx="0.6" ry="0.7"/>
	<ellipse class="st6ash" cx="30.3" cy="110.4" rx="0.6" ry="0.7"/>
	<ellipse class="st6ash" cx="31.6" cy="110.4" rx="0.6" ry="0.7"/>
	<ellipse class="st6ash" cx="27.8" cy="111.8" rx="0.6" ry="0.7"/>
	<ellipse class="st6ash" cx="29.1" cy="111.8" rx="0.6" ry="0.7"/>
	<ellipse class="st6ash" cx="30.4" cy="111.8" rx="0.6" ry="0.7"/>
	<ellipse class="st6ash" cx="31.7" cy="111.8" rx="0.6" ry="0.7"/>
	<ellipse class="st6ash" cx="27.8" cy="113.3" rx="0.6" ry="0.7"/>
	<ellipse class="st6ash" cx="29.1" cy="113.3" rx="0.6" ry="0.7"/>
	<ellipse class="st6ash" cx="30.4" cy="113.3" rx="0.6" ry="0.7"/>
	<ellipse class="st6ash" cx="31.7" cy="113.3" rx="0.6" ry="0.7"/>
</g>
<rect x="18.6" y="90.2" class="st7" width="8.3" height="36"/>
<g>
	
		<rect x="22.7" y="93.3" transform="matrix(-1.836970e-16 1 -1 -1.836970e-16 119.3541 68.2034)" class="st8ash" width="5.8" height="1"/>
	
		<rect x="21.3" y="93.3" transform="matrix(-1.836970e-16 1 -1 -1.836970e-16 117.994 69.5635)" class="st8ash" width="5.8" height="1"/>
	<rect x="20" y="93.3" transform="matrix(-1.836970e-16 1 -1 -1.836970e-16 116.634 70.9236)" class="st8ash" width="5.8" height="1"/>
	
		<rect x="18.6" y="93.3" transform="matrix(-1.836970e-16 1 -1 -1.836970e-16 115.2739 72.2837)" class="st8ash" width="5.8" height="1"/>
	
		<rect x="17.2" y="93.3" transform="matrix(-1.836970e-16 1 -1 -1.836970e-16 113.9138 73.6438)" class="st8ash" width="5.8" height="1"/>
	
		<rect x="19.7" y="103.6" transform="matrix(-1 -1.224647e-16 1.224647e-16 -1 45.7104 208.253)" class="st8ash" width="6.4" height="1"/>
	
		<rect x="19.7" y="102.1" transform="matrix(-1 -1.224647e-16 1.224647e-16 -1 45.7104 205.2877)" class="st8ash" width="6.4" height="1"/>
	
		<rect x="19.7" y="100.6" transform="matrix(-1 -1.224647e-16 1.224647e-16 -1 45.7104 202.3225)" class="st8ash" width="6.4" height="1"/>
	
		<rect x="19.7" y="99.2" transform="matrix(-1 -1.224647e-16 1.224647e-16 -1 45.7104 199.3573)" class="st8ash" width="6.4" height="1"/>
	
		<rect x="19.7" y="97.7" transform="matrix(-1 -1.224647e-16 1.224647e-16 -1 45.7104 196.392)" class="st8ash" width="6.4" height="1"/>
	
		<rect x="23.4" y="105.4" transform="matrix(-1.836970e-16 1 -1 -1.836970e-16 130.0588 81.9555)" class="st8ash" width="1.2" height="1.1"/>
	
		<rect x="23.4" y="107" transform="matrix(-1.836970e-16 1 -1 -1.836970e-16 131.6354 83.5321)" class="st8ash" width="1.2" height="1.1"/>
	<polyline class="st8ash" points="23.5,108.5 24.6,108.5 24.6,109.8 23.5,109.8 	"/>
	<polyline class="st8ash" points="23.5,110.1 24.6,110.1 24.6,111.4 23.5,111.4 	"/>
	
		<rect x="22.1" y="105.4" transform="matrix(-1.836970e-16 1 -1 -1.836970e-16 128.7065 83.3078)" class="st8ash" width="1.2" height="1.1"/>
	
		<rect x="22.1" y="107" transform="matrix(-1.836970e-16 1 -1 -1.836970e-16 130.2831 84.8844)" class="st8ash" width="1.2" height="1.1"/>
	<polyline class="st8ash" points="22.1,108.5 23.3,108.5 23.3,109.8 22.1,109.8 	"/>
	<polyline class="st8ash" points="22.1,110.1 23.3,110.1 23.3,111.4 22.1,111.4 	"/>
	
		<rect x="20.7" y="105.4" transform="matrix(-1.836970e-16 1 -1 -1.836970e-16 127.3685 84.6458)" class="st8ash" width="1.2" height="1.1"/>
	
		<rect x="20.7" y="107" transform="matrix(-1.836970e-16 1 -1 -1.836970e-16 128.9451 86.2224)" class="st8ash" width="1.2" height="1.1"/>
	<polyline class="st8ash" points="20.8,108.5 21.9,108.5 21.9,109.8 20.8,109.8 	"/>
	<polyline class="st8ash" points="20.8,110.1 21.9,110.1 21.9,111.4 20.8,111.4 	"/>
	
		<rect x="19.5" y="117.9" transform="matrix(-1 -1.224647e-16 1.224647e-16 -1 45.413 236.8383)" class="st8ash" width="6.4" height="1"/>
	
		<rect x="19.5" y="116.4" transform="matrix(-1 -1.224647e-16 1.224647e-16 -1 45.413 233.8731)" class="st8ash" width="6.4" height="1"/>
	
		<rect x="19.5" y="114.9" transform="matrix(-1 -1.224647e-16 1.224647e-16 -1 45.413 230.9078)" class="st8ash" width="6.4" height="1"/>
	
		<rect x="19.5" y="113.4" transform="matrix(-1 -1.224647e-16 1.224647e-16 -1 45.413 227.9426)" class="st8ash" width="6.4" height="1"/>
	
		<rect x="19.5" y="112" transform="matrix(-1 -1.224647e-16 1.224647e-16 -1 45.413 224.9773)" class="st8ash" width="6.4" height="1"/>
	
		<rect x="22.5" y="122" transform="matrix(-1.836970e-16 1 -1 -1.836970e-16 147.9061 97.067)" class="st8ash" width="5.8" height="1"/>
	
		<rect x="21.2" y="122" transform="matrix(-1.836970e-16 1 -1 -1.836970e-16 146.546 98.4271)" class="st8ash" width="5.8" height="1"/>
	
		<rect x="19.8" y="122" transform="matrix(-1.836970e-16 1 -1 -1.836970e-16 145.1859 99.7872)" class="st8ash" width="5.8" height="1"/>
	
		<rect x="18.5" y="122" transform="matrix(-1.836970e-16 1 -1 -1.836970e-16 143.8258 101.1472)" class="st8ash" width="5.8" height="1"/>
	
		<rect x="17.1" y="122" transform="matrix(-1.836970e-16 1 -1 -1.836970e-16 142.4657 102.5073)" class="st8ash" width="5.8" height="1"/>
</g>
<g>
	<path class="st0ash" d="M9.6,28.9h2.5c1.1,0,2.1,0.9,2.1,2.1v4.9c0,1.1-0.9,2.1-2.1,2.1H9.6c-1.1,0-2.1-0.9-2.1-2.1v-4.9
		C7.5,29.8,8.5,28.9,9.6,28.9z"/>
	
		<rect x="12.1" y="34" transform="matrix(2.119927e-09 -1 1 2.119927e-09 -23.5997 48.1822)" class="st9ash" width="0.5" height="3.8"/>
	
		<rect x="12.1" y="33.2" transform="matrix(2.115931e-09 -1 1 2.115931e-09 -22.7841 47.3667)" class="st9ash" width="0.5" height="3.8"/>
	
		<rect x="12.1" y="32.3" transform="matrix(2.115931e-09 -1 1 2.115931e-09 -21.9117 46.4942)" class="st9ash" width="0.5" height="3.8"/>
	
		<rect x="12.1" y="31.5" transform="matrix(2.115931e-09 -1 1 2.115931e-09 -21.121 45.7035)" class="st9ash" width="0.5" height="3.8"/>
	
		<rect x="12.1" y="30.7" transform="matrix(2.115931e-09 -1 1 2.115931e-09 -20.3055 44.888)" class="st9ash" width="0.5" height="3.8"/>
	
		<rect x="12.1" y="29.8" transform="matrix(2.115931e-09 -1 1 2.115931e-09 -19.433 44.0155)" class="st9ash" width="0.5" height="3.8"/>
	
		<rect x="12.1" y="29" transform="matrix(2.115931e-09 -1 1 2.115931e-09 -18.5928 43.1753)" class="st9ash" width="0.5" height="3.8"/>
</g>
<g>
	<path class="st0ash" d="M32.9,51.2h-0.8c-1.1,0-2.1-0.9-2.1-2.1v-4.9c0-1.1,0.9-2.1,2.1-2.1h0.8c1.1,0,2.1,0.9,2.1,2.1v4.9
		C35,50.2,34.1,51.2,32.9,51.2z"/>
	
		<rect x="31.2" y="42.7" transform="matrix(-1.836970e-16 1 -1 -1.836970e-16 75.5589 12.7103)" class="st9ash" width="0.5" height="2.8"/>
	
		<rect x="31.2" y="43.5" transform="matrix(-1.836970e-16 1 -1 -1.836970e-16 76.3745 13.5259)" class="st9ash" width="0.5" height="2.8"/>
	
		<rect x="31.2" y="44.4" transform="matrix(-1.836970e-16 1 -1 -1.836970e-16 77.2469 14.3983)" class="st9ash" width="0.5" height="2.8"/>
	
		<rect x="31.2" y="45.2" transform="matrix(-1.836970e-16 1 -1 -1.836970e-16 78.0376 15.189)" class="st9ash" width="0.5" height="2.8"/>
	
		<rect x="31.2" y="46" transform="matrix(-1.836970e-16 1 -1 -1.836970e-16 78.8532 16.0046)" class="st9ash" width="0.5" height="2.8"/>
	
		<rect x="31.2" y="46.9" transform="matrix(-1.836970e-16 1 -1 -1.836970e-16 79.7256 16.877)" class="st9ash" width="0.5" height="2.8"/>
	
		<rect x="31.2" y="47.7" transform="matrix(-1.836970e-16 1 -1 -1.836970e-16 80.5658 17.7172)" class="st9ash" width="0.5" height="2.8"/>
</g>
<rect x="12.9" y="29.7" class="st4ash" width="18.9" height="60.4"/>
<ellipse class="st9ash" cx="24.5" cy="37.6" rx="3" ry="4.2"/>
<ellipse class="st10ash" cx="24.5" cy="39.4" rx="1.1" ry="1.3"/>
<ellipse class="st10ash" cx="24.5" cy="35.2" rx="0.9" ry="1.1"/>
<path class="st11ash" d="M29.4,29c0-1.2,0-2.3,0-3.5c-0.8,0-1.6,0-2.3,0c0-1.5,0-2.9,0-4.4c-3,0-6.1,0-9.1,0c0,2.6,0,5.1,0,7.7
	C21.8,28.9,25.6,29,29.4,29z"/>
<path class="st12ash" d="M17.3,6.8c4.3,0,8.6,0,12.9,0c-0.6,1.6-1.8,4.9-1.5,9.3c0.2,3.1,1,5.5,1.7,7c-3.6,0-7.1,0-10.7,0
	C18.9,17.6,18.1,12.2,17.3,6.8z"/>
<path class="st4ash" d="M31.8,27.8c-4.6,0.3-7.1-1.1-8.4-2.8c-3.7-4.3-3.3-13.6-3.3-13.6c0,0,0,0.4,0,0.4c-0.1,0-0.7-2.5-1.9-8.4
	c-0.2-0.5-0.8-1.7-1.9-2.5c-1.4-1.1-2.9-1-3.3-0.9c0,2.2,0,4.5,0,6.7c-0.5,0-1,0-1.6,0c0,0.7,0,1.4,0,2.2c-3.1,0-6.3,0-9.4,0
	c-1.6,1.9-2.2,4.4-1.9,6.4c0.4,2,1.6,3.5,1.6,3.5C1.8,18.9,1.9,19,2,19.1c1.6,0,3.2,0,4.8,0c0,0.8,0,1.7,0,2.5
	c2,0.4,4.1,0.7,6.1,1.1c0,3.4,0,6.7,0,10.1c6.3,0,12.6,0,18.9,0C31.7,31.1,31.7,29.5,31.8,27.8z"/>
</svg>
