<?xml version="1.0" encoding="utf-8"?>
<!-- Generator: Adobe Illustrator 25.2.3, SVG Export Plug-In . SVG Version: 6.00 Build 0)  -->
<svg version="1.1" id="Lag_1" xmlns="http://www.w3.org/2000/svg" xmlns:xlink="http://www.w3.org/1999/xlink" x="0px" y="0px"
	 viewBox="0 0 35 200" style="enable-background:new 0 0 35 200;" xml:space="preserve">
<style type="text/css">
	.st0cdh{fill:#4D4B4B;}
	.st1cdh{fill:#222323;}
	.st2cdh{fill:#676766;}
	.st3cdhfill:#7C7C7C;}
	.st4cdh{fill:#777777;}
	.st5cdh{fill:#333333;}
	.st6cdh{fill:#847C3E;}
	.st7cdh{fill:#2B2B2B;}
	.st8cdh{fill:#666667;}
	.st9cdh{fill:#7B7B7C;}
	.st10cdh{fill:#8D8D8E;}
	.st11cdh{fill:#999898;}
	.st12cdh{fill:#5A5959;}
	.st13cdh{fill:#771611;}
	.st14cdh{fill:#999999;}
	.st15cdh{fill:#7E7E7F;}
	.st16cdh{fill:#565557;}
	.st17cdh{fill:#757577;}
	.st18cdh{fill:#6C6C6C;}
	.st19cdh{fill:#909091;}
	.st20cdh{fill:#888989;}
</style>
<path class="st0cdh" d="M13.7,169.8c-1.3,0.8-2.6,1.6-3.9,2.4c-0.2,0.2-0.5,0.6-0.6,1.2c-0.3,1.2,0.3,2.3,0.3,2.4
	c2.7,7.6,5.4,15.1,8.1,22.7c0.1,0.5,0.3,0.8,0.5,1c0.9,1,2.6,0.6,4.3-1c1.7-1.3,3.3-2.6,5-4c0.4-0.5,0.6-1,0.6-1.4
	c0.3-1.6-0.7-3.6-2.4-4.8C21.6,182.1,17.6,175.9,13.7,169.8z"/>
<path class="st1cdh" d="M22.7,175.2c-0.2-0.4-0.4-0.9-0.5-1.3c-3.2,1.7-6.3,3.5-9.5,5.2c0.5,1.1,1,2.2,1.5,3.4
	C17,180.1,19.8,177.6,22.7,175.2z"/>
<path class="st2cdh" d="M14.8,183.1c0,0.3,0.2,1,0.5,1.6c0.2,0.4,0.5,0.7,0.6,0.8c4.9-3.4,9.7-6.8,14.6-10.3c0-0.3,0-0.8-0.2-1.3
	c-0.2-0.7-0.6-1.1-0.8-1.2C24.7,176.2,19.8,179.6,14.8,183.1z"/>
<path class="st2cdh" d="M34.4,184.7c0-0.3-0.2-1-0.5-1.6c-0.2-0.4-0.5-0.7-0.6-0.8c-4.9,3.4-9.7,6.8-14.6,10.3c0,0.3,0,0.8,0.2,1.3
	c0.2,0.7,0.6,1.1,0.8,1.2C24.5,191.6,29.4,188.2,34.4,184.7z"/>
<path class="st3cdh" d="M14.7,184c5.3-3.7,10.6-7.3,15.8-11c0-0.3-0.1-1-0.4-1.6c-0.2-0.3-0.4-0.8-0.8-0.9c-0.6-0.2-1.1,0.4-1.2,0.5
	c-4.4,3.2-8.8,6.3-13.2,9.5c-0.4,0.2-0.7,0.7-0.7,1.3c0,0.3,0.1,0.5,0.1,0.7C14.4,183,14.5,183.5,14.7,184z"/>
<path class="st3cdh" d="M34.4,184c-5.3,3.7-10.6,7.3-15.8,11c0,0.3,0.1,1,0.4,1.6c0.2,0.3,0.4,0.8,0.8,0.9c0.6,0.2,1.1-0.4,1.2-0.5
	c4.4-3.2,8.8-6.3,13.2-9.5c0.4-0.2,0.7-0.7,0.7-1.3c0-0.3-0.1-0.5-0.1-0.7C34.7,185,34.6,184.5,34.4,184z"/>
<path class="st3cdh" d="M14.8,186.1c1,2.6,1.9,5.1,2.9,7.7c5.4-3.8,10.8-7.7,16.2-11.5c-0.9-2.6-1.9-5.2-2.8-7.8
	C25.6,178.4,20.2,182.2,14.8,186.1z"/>
<path class="st4cdh" d="M25.4,182.1c1.5-1.1,2.9-2.1,4.4-3.2c0.6-0.5,1.2-0.2,1.3,0.3c0.1,0.4-0.1,1.2-0.7,1.5
	c-1.5,1.1-3.1,2.3-4.6,3.4C25.7,183.4,25.6,182.7,25.4,182.1z"/>
<ellipse class="st5cdh" cx="24.2" cy="184.1" rx="2.1" ry="2.9"/>
<ellipse class="st6cdh" cx="23.8" cy="184.3" rx="1.2" ry="1.6"/>
<path class="st7cdh" d="M1.7,101.1c0.2,11.6,0.3,23.2,0.5,34.8c-0.2,0.5-0.1,1.1,0.1,1.3c0.2,0.1,0.3,0.1,0.4,0.1c0.2,3,0.4,6,0.6,9
	c4.4-1,8.8-2.1,13.1-3.1c-0.3-15.5-0.6-30.9-0.9-46.4c-1.9,0.4-3.8,0.8-5.6,1.2C7.2,99,4.5,100,1.7,101.1z"/>
<path class="st8cdh" d="M14.6,100.4c0.2,2.4,0.4,4.7,0.7,7.1c-1,4.3-2,8.6-3.2,13.1c-1.7,6.4-3.4,12.4-5.2,18c-0.2,1.6,0.2,3.2,1,4.1
	c1.1,1.2,2.5,0.7,2.6,0.6c1.9-0.2,3.8-0.4,5.7-0.6c0,1.5-0.1,3.1-0.1,4.6c-4.2,0.1-8.4,0.1-12.7,0.2c-0.2-0.2-0.3-0.5-0.4-0.7
	c-0.4-1.3,0.3-2.7,0.4-2.7C7.2,129.6,10.9,115,14.6,100.4z"/>
<path class="st9cdh" d="M16.4,94.3c-0.2,0-0.4,0-0.6,0c0,0.1,0.3,1-0.1,1.8c-0.3,0.6-0.8,0.8-0.9,0.8c-0.1,1.2-0.1,2.4-0.2,3.7
	c0.1,1.3,0.2,2.6,0.3,4c0.1,1.1,0.2,2.2,0.2,3.2c0.1,0,0.2,0,0.2,0c0.2,11.7,0.4,23.4,0.6,35c0,0.7,0,1.4,0,1.8
	c-0.1,1.2-0.1,1.6-0.3,1.8c-0.2,0.4-0.5,0.5-0.6,0.6c-0.4,0.3-0.8,1.4-0.4,4.6c0.6,0.4,1.2,0.8,1.8,1.2c0,0,0.4,0,0.6-0.3
	c0.3-0.3,0.2-0.8,0.2-0.9C17,132.5,16.7,113.4,16.4,94.3z"/>
<path class="st10cdh" d="M17.5,154.9c-0.4-1-0.7-2-1.1-3c-0.9-0.3-1.5-1.3-1.5-2.3c0-0.8,0.4-1.4,0.5-1.6c0-0.5,0-1,0-1.5
	c-4.1,0.1-8.1,0.3-12.2,0.4c-0.2,2-0.2,5.6,0.8,9.7c0.7,2.5,1.6,4.5,2.3,5.8C10,159.8,13.8,157.4,17.5,154.9z"/>
<path class="st11cdh" d="M15.2,148.3c-1.9,0.1-3.9,0.1-5.8,0.2c-0.1,0-1.5,0.2-2.2,1.9c-0.5,1.2-0.3,2.4-0.3,2.7c0,0.2,0.3,1.8,1.4,2.5
	c1,0.6,2.2,0.2,3-1c1.6-1,3.1-1.9,4.7-2.9c-0.1-0.1-0.3-0.3-0.5-0.5c-0.1-0.2-0.3-0.5-0.4-1c0-0.2-0.1-0.6,0-1.1
	C15,148.7,15.1,148.5,15.2,148.3z"/>
<ellipse class="st12cdh" cx="9.4" cy="152.6" rx="2.1" ry="3.2"/>
<ellipse class="st6cdh" cx="8.7" cy="152.8" rx="1.2" ry="1.6"/>
<path class="st8cdh" d="M2.5,137.2c0,2.6,0.1,5.2,0.1,7.9c4.1-16.1,8.2-32.1,12.2-48.2C10.4,96.9,6,97,1.6,97c0,1.6,0.1,3.1,0.1,4.7
	c0.2-0.1,0.5-0.2,0.8-0.3c1-0.3,1.5-0.2,2.6-0.2c1.5,0,1.5-0.3,2.8-0.3c0.8,0,1.5,0.1,2,0.2c0.3,0.1,1,0.5,1.4,1.6
	c0.5,1.3,0.5,2.9-0.2,4.3C8.2,117.1,5.3,127.1,2.5,137.2z"/>
<path class="st9cdh" d="M15.4,107.7"/>
<path class="st13cdh" d="M17.1,154.5c0.1-0.2,0.6-0.8,1.1-0.7c0.3,0,0.5,0.3,0.6,0.4c1.3,1.6,1.8,3.8,1.8,3.8c0.4,1.4,1.2,3.4,3.2,5.5
	c0.3,0.4,0.7,0.8,1.2,1.2c0.4,0.3,0.8,0.5,1.1,0.7c0.6,0.2,1.1,1,1.1,1.9c0,1-0.5,1.8-1.2,2c-1.1,0.7-2.3,1.4-3.4,2.2
	c-2-5.3-3.9-10.5-5.9-15.8C16.8,155.3,17,154.9,17.1,154.5z"/>
<path class="st5cdh" d="M6,161.6c0.6,2.3,1.4,4.9,2.5,7.7c1.1,2.9,2.3,5.5,3.4,7.6c3.6-2.5,7.2-4.9,10.8-7.4c-0.8-2.6-1.7-5.2-2.6-7.9
	c-0.9-2.6-1.8-5-2.7-7.4C13.6,156.7,9.8,159.1,6,161.6z"/>
<path class="st14cdh" d="M23.4,173.1c-3.5,2.2-7,4.3-10.5,6.5c-0.1,0-0.4,0.1-0.6-0.1c-0.3-0.2-0.3-0.4-0.7-1.3
	c-0.3-0.7-0.4-0.8-0.4-1.2c0-0.4,0.1-0.7,0.3-0.9c3.5-2.4,6.9-4.7,10.4-7.1c0.1,0,0.4-0.2,0.7,0c0.5,0.3,0.7,1.1,0.7,1.1
	c0.2,0.5,0.4,1.3,0.3,2.3C23.5,172.7,23.4,172.9,23.4,173.1z"/>
<path class="st15cdh" d="M23.7,45.3c-4.7-1-9.5-1.9-14.2-2.9c0.1,1.3,0.1,3.4-0.5,5.8c-0.4,1.4-0.9,2.5-1.3,3.3
	c3.6,2.2,7.2,4.5,10.8,6.7c1.3-2.7,2.7-5.3,4-8c1.1-0.5,2.2-1,3.3-1.4C25,47.6,24.3,46.5,23.7,45.3z"/>
<path class="st16cdh" d="M7.6,51.5c-0.1,0-0.5,0-0.8,0.3c-0.4,0.4-0.5,1.2-0.3,1.9c2,1.3,4,2.7,6,4c1.7,0.9,3.4,1.9,5.1,2.8
	c0.4-0.8,0.8-1.6,1.2-2.4C15,56,11.3,53.8,7.6,51.5z"/>
<path class="st17cdh" d="M0.5,93.1c0-0.2,0-0.8,0.3-1.3c0.3-0.6,0.9-1,1.5-0.9c4.2,0,8.5,0,12.7-0.1c0,0,0.4,0.2,0.6,0.8
	c0.1,0.6-0.1,1-0.2,1c-0.7,0.1-1.3,0.2-2,0.3C9.2,93,4.9,93.1,0.5,93.1z"/>
<path class="st17cdh" d="M0.4,94.3c0,0.2-0.1,1.3,0.5,2.2c0.3,0.4,0.5,0.5,0.7,0.6C6,97,10.5,97,14.9,96.9c0.9-0.3,1.3-1.4,1.1-2.1
	c-0.1-0.5-0.6-0.8-1.1-0.8C10.1,94.1,5.2,94.2,0.4,94.3z"/>
<path class="st18cdh" d="M16.3,92.3c-2.3,0.4-4.9,0.6-7.6,0.8c-3.2,0.1-6.1,0-8.8-0.2c0,0.6,0,1.2,0,1.8c5.5-0.1,10.9-0.2,16.4-0.4
	c0.1-0.2,0.2-0.5,0.2-0.9C16.6,92.9,16.4,92.5,16.3,92.3z"/>
<path class="st19cdh" d="M6.5,53.8C5.2,58.6,3.9,64.7,3.1,72c-0.8,7.6-0.8,14.4-0.6,19.7c4.6,0.4,9.2,0.7,13.8,1.1
	c0-1.9,0.1-4.6,0.3-7.7c0.2-3.9,0.4-8.6,1.2-13.8c0.5-3.9,1.5-9.3,3.4-15.6c0.3-0.7,1.2-3,3.3-4.2c1.6-0.9,3.1-0.7,3.7-0.6
	c0,0,0.7,0.1,1-0.6c0.3-0.5,0.3-1.1,0.2-1.2c1.3-5.9,2.6-12.9,3.5-20.8C34,17.8,34.1,8.5,33.8,0.9c0-0.1,0-0.6-0.2-0.8
	c-0.3-0.2-0.8,0-1.1,0.8c-1.2,2.3-2.3,4.6-3.5,6.8c-0.1,0.1-0.4,0.6-0.3,1.4c0.1,0.6,0.4,1,0.4,1.1c0.5,1,1.1,2.4,1.6,4.2
	c0.4,1.6,0.6,3.1,0.7,4.2c0,2.4-0.2,5.5-0.9,9c-0.6,3.3-1.4,6.1-2.2,8.2c-0.4,0.8-1.1,2-2.2,3c-1.1,1-2.2,1.5-2.8,1.7
	c-0.1,0-0.7,0.4-0.9,1.3c-0.1,0.5,0,1,0,1.2c0,0.7,0,1.3,0.1,2c0.3,0.2,0.6,0.4,0.9,0.6c0.1,0.2,0.2,0.4,0.4,0.7
	c0.1,0.2,0.2,0.4,0.3,0.6c0.1,0.2,0.2,0.7-0.1,1.6c-0.4,0.2-0.9,0.5-1.4,0.9c-0.4,0.3-0.8,0.7-1.1,1c-0.6,0.9-1.4,2.1-2.1,3.7
	c-0.6,1.4-1.1,2.8-1.4,3.9c0.1,0.1,0.3,0.5,0.2,1.1c0,0.6-0.3,1.1-0.8,1.3C13.7,58.1,10.1,56,6.5,53.8z"/>
<path class="st16cdh" d="M15.5,63.7l-3.3-1.5c-0.4-0.2-0.6-0.8-0.5-1.3h0c0.1-0.6,0.6-0.9,1-0.7l3.3,1.5c0.4,0.2,0.6,0.8,0.5,1.3v0
	C16.3,63.6,15.9,63.9,15.5,63.7z"/>
<path class="st16cdh" d="M14.9,67.1l-3.3-1.2c-0.4-0.1-0.7-0.7-0.6-1.3l0,0c0.1-0.6,0.5-0.9,0.9-0.8l3.3,1.2c0.4,0.1,0.7,0.7,0.6,1.3h0
	C15.7,66.9,15.3,67.3,14.9,67.1z"/>
<path class="st16cdh" d="M14.5,71.1l-3.4-0.9c-0.4-0.1-0.7-0.7-0.6-1.2l0,0c0.1-0.6,0.5-1,0.9-0.8l3.4,0.9c0.4,0.1,0.7,0.7,0.6,1.2v0
	C15.3,70.8,14.9,71.2,14.5,71.1z"/>
<path class="st16cdh" d="M14,75.8l-3.4-0.5c-0.4-0.1-0.7-0.6-0.7-1.2l0,0c0-0.6,0.4-1,0.8-0.9l3.4,0.5c0.4,0.1,0.7,0.6,0.7,1.2h0
	C14.8,75.4,14.4,75.8,14,75.8z"/>
<path class="st16cdh" d="M13.7,80.3l-3.4-0.2c-0.4,0-0.8-0.5-0.7-1.1l0,0c0-0.6,0.4-1,0.8-1l3.4,0.2c0.4,0,0.8,0.5,0.7,1.1l0,0
	C14.5,79.9,14.2,80.3,13.7,80.3z"/>
<path class="st16cdh" d="M13.2,84.7h-2.9c-0.6,0-1.1-0.5-1.1-1.1l0,0c0-0.6,0.5-1.1,1.1-1.1h2.9c0.6,0,1.1,0.5,1.1,1.1l0,0
	C14.2,84.2,13.7,84.7,13.2,84.7z"/>
<path class="st16cdh" d="M13.2,88.5h-2.9c-0.6,0-1.1-0.5-1.1-1.1v0c0-0.6,0.5-1.1,1.1-1.1h2.9c0.6,0,1.1,0.5,1.1,1.1v0
	C14.2,88,13.7,88.5,13.2,88.5z"/>
<path class="st20cdh" d="M9.5,42.5c0,0-0.2-0.3-0.2-0.8c0-0.5,0.3-0.7,0.3-0.7c4.3,0.9,8.7,1.8,13,2.7c0.3,0.2,0.4,0.7,0.3,1
	c-0.1,0.3-0.3,0.5-0.6,0.6C18.1,44.4,13.8,43.4,9.5,42.5z"/>
<path class="st6cdh" d="M9.5,43c-0.5,0.5-1.2,1.2-1.9,2.2c-0.9,1.4-1.3,2.7-1.4,3c-0.5,1.6-0.5,2.6-0.7,6c-0.1,1.2-0.2,2.9-0.4,5
	c0.4-1.8,0.9-3.6,1.3-5.4c-0.2-0.7-0.1-1.5,0.3-1.9c0.3-0.4,0.8-0.4,0.9-0.4c0.4-0.8,1-2.1,1.4-3.8C9.5,45.8,9.5,44,9.5,43z"/>
</svg>
