<?xml version="1.0" encoding="utf-8"?>
<!-- Generator: Adobe Illustrator 25.2.3, SVG Export Plug-In . SVG Version: 6.00 Build 0)  -->
<svg version="1.1" id="Lag_1" xmlns="http://www.w3.org/2000/svg" xmlns:xlink="http://www.w3.org/1999/xlink" x="0px" y="0px"
	 viewBox="0 0 55 200" style="enable-background:new 0 0 55 200;" xml:space="preserve">
<style type="text/css">
	.st0krh{fill:#564318;}
	.st1krh{fill:#8C888A;}
	.st2krh{fill:none;stroke:#000000;stroke-miterlimit:10;}
	.st3krh{fill:#191816;}
	.st4krh{fill:#3A3135;}
	.st5krh{fill:#715621;}
	.st6krh{fill:#333333;}
	.st7krh{fill:#931916;}
	.st8krh{fill:#725720;}
	.st9krh{fill:#5A5958;}
	.st10krh{fill:#4A4848;}
	.st11krh{fill:#3F363A;}
	.st12krh{fill:#931914;}
	.st13krh{fill:#4A4145;}
	.st14krh{fill:#931918;}
	.st15krh{fill:#828282;}
	.st16krh{fill:#221F1F;}
	.st17krh{fill:#3A3A3A;}
	.st18krh{fill:#4C4C48;}
	.st19krh{fill:#717070;}
	.st20krh{fill:#1E1E1E;}
	.st21krh{fill:#353434;}
	.st22krh{fill:#340D1F;}
	.st23krh{fill:#5C5C5C;}
	.st24krh{fill:#47333D;}
	.st25krh{fill:#2D252A;}
	.st26krh{fill:#2D2C2C;}
	.st27krh{fill:#1B172B;}
	.st28krh{fill:#381026;}
	.st29krh{fill:#A0A09F;}
	.st30krh{fill:#93191A;}
	.st31krh{fill:#929292;}
	.st32krh{fill:#161616;}
</style>
<ellipse class="st0krh" cx="28.6" cy="189.1" rx="8" ry="5.6"/>
<path class="st1krh" d="M33.8,189.8c-1.2,0.8-3.2,1.7-5.6,1.7c-2.1-0.1-3.8-0.9-5-1.7c0-4.1,0-8.2,0-12.4h10.6V189.8z"/>
<rect x="26.4" y="182.8" class="st2krh" width="1.1" height="3.7"/>
<rect x="28.7" y="184.9" class="st2krh" width="0.8" height="3.7"/>
<polygon class="st2krh" points="26.2,188.7 25.7,187.5 26.4,186.5 27,187.7 "/>
<ellipse class="st2krh" cx="29.1" cy="182.8" rx="1.1" ry="1.9"/>
<path class="st3krh" d="M35,142c-2,0.5-4.2,0.9-6.7,1c-2.7,0.1-5.1-0.2-7.1-0.6c0,11.7,0.1,23.5,0.1,35.2c1.3,1,3.7,2.7,7,2.6
	c3.4-0.1,5.9-2.1,7.1-3.3C35.2,165.3,35.1,153.7,35,142z"/>
<path class="st4krh" d="M20.4,189.9c1.1,1.3,4.1,4.3,8.3,4.2c3.8-0.1,6.6-2.9,7.7-4.2c0,1.7,0,3.4,0,5.1c-1,1.2-4.4,5.1-9.2,4.4
	c-3.3-0.5-5.7-3.1-6.8-4.4C20.5,193.3,20.4,191.6,20.4,189.9z"/>
<path class="st0krh" d="M28.2,179.4L28.2,179.4c-1.1,0-1.9-0.9-1.9-1.9v-36.6c0-1.1,0.9-1.9,1.9-1.9h0c1.1,0,1.9,0.9,1.9,1.9v36.6
	C30.1,178.5,29.3,179.4,28.2,179.4z"/>
<ellipse class="st5krh" cx="28.3" cy="176.3" rx="1.2" ry="2"/>
<ellipse class="st6krh" cx="28.2" cy="176.3" rx="0.3" ry="0.6"/>
<ellipse class="st7krh" cx="28.9" cy="198.7" rx="3.6" ry="1.3"/>
<path class="st8krh" d="M28.2,171.2L28.2,171.2c-0.4,0-0.7-0.3-0.7-0.7v-23.1c0-0.4,0.3-0.7,0.7-0.7h0c0.4,0,0.7,0.3,0.7,0.7v23.1
	C28.9,170.9,28.6,171.2,28.2,171.2z"/>
<rect x="33.9" y="151.3" class="st9krh" width="1.5" height="20"/>
<rect x="33.9" y="165.5" class="st10krh" width="1.5" height="0.4"/>
<rect x="33.9" y="166.2" class="st10krh" width="1.5" height="0.4"/>
<rect x="33.9" y="167" class="st10krh" width="1.5" height="0.4"/>
<rect x="34" y="167.9" class="st10krh" width="1.5" height="0.4"/>
<rect x="33.9" y="168.7" class="st10krh" width="1.5" height="0.4"/>
<rect x="33.9" y="169.4" class="st10krh" width="1.5" height="0.4"/>
<rect x="20.7" y="150.8" class="st9krh" width="1.5" height="20"/>
<rect x="20.7" y="165" class="st10krh" width="1.5" height="0.4"/>
<rect x="20.7" y="165.8" class="st10krh" width="1.5" height="0.4"/>
<rect x="20.7" y="166.6" class="st10krh" width="1.5" height="0.4"/>
<rect x="20.7" y="167.4" class="st10krh" width="1.5" height="0.4"/>
<rect x="20.7" y="168.3" class="st10krh" width="1.5" height="0.4"/>
<rect x="20.7" y="169" class="st10krh" width="1.5" height="0.4"/>
<path class="st4krh" d="M35.4,141.8c-1.8,0.9-4.3,1.7-7.2,1.8c-3.1,0.1-5.6-0.6-7.5-1.4c0-22.7,0-45.3,0-68h14.8
	C35.4,96.7,35.4,119.3,35.4,141.8z"/>
<ellipse class="st5krh" cx="28.2" cy="142.5" rx="1.2" ry="2"/>
<ellipse class="st6krh" cx="28.2" cy="142.5" rx="0.3" ry="0.6"/>
<path class="st4krh" d="M21.4,150c0-1,0-1.9,0-2.9c0-0.1-0.2-0.3-0.5-0.3c-0.2,0-0.4,0.2-0.4,0.3c-0.3,1.4-0.7,2.8-1,4.1
	c-0.2,10.6-0.3,21.2-0.5,31.8c-0.2,2.5-0.4,5.1-0.7,7.6c-0.1,0.8,0,1.6,0.2,2c0.2,0.3,0.4,0.3,0.5,0.3c0.5,0.1,0.9,0.2,1.4,0.3
	c0-1.1-0.1-2.3-0.1-3.4c0.3,0.3,0.6,0.7,1,1c0.4,0.3,0.7,0.7,1.1,0.9c-0.3-1.7-0.6-3.5-0.8-5.2c0-2.8,0-5.6,0-8.4
	c-0.2-0.4-0.4-0.8-0.6-1.2c-0.1-8.7-0.2-17.4-0.3-26.1C21,150.6,21.2,150.3,21.4,150z"/>
<path class="st4krh" d="M36.5,193.5c0.2,0,0.8,0.1,1.4-0.6c0.3-0.4,0.5-0.8,0.6-1.1c-0.4-3.6-0.8-7.3-1.2-10.9
	c-0.1-10-0.3-20.1-0.4-30.1c-0.3-1.3-0.6-2.5-0.9-3.8c0-0.2-0.1-0.3-0.2-0.3c-0.1,0-0.2,0.1-0.3,0.3c-0.1,13-0.2,26-0.3,39
	c0.2,0.4,0.5,1,0.7,1.7c0.2,0.5,0.3,1,0.4,1.4C36.4,190.5,36.4,192,36.5,193.5z"/>
<path class="st4krh" d="M33.2,150.8c-0.5-1.5-1.4-2-2-1.5c-0.4,0.4-0.5,1.3-0.5,1.5c0.3,14.4,0.6,28.8,0.8,43.2
	c-0.2,0.9-0.3,1.8-0.5,2.8c0,0.1,0,0.7,0.2,1.2c0.3,0.5,0.7,0.5,1.1,0.1c1.4-1,2.1-1.8,2-2.4c0-0.2-0.1-0.3-0.2-0.4
	C33.9,180.5,33.5,165.6,33.2,150.8z"/>
<path class="st4krh" d="M23.3,149.9c0.2-0.2,0.6-0.4,1.1-0.5c0.5-0.1,0.9,0.1,1.2,0.2c-0.1,14.8-0.2,29.6-0.3,44.4
	c0.1,0.7,0.1,1.5,0.2,2.2c0.3,0.6,0.3,1.6,0,2c-0.2,0.3-0.6,0.3-0.9-0.1c-0.3-0.1-0.5-0.3-0.6-0.4c-0.5-0.6-0.6-2-0.4-3.3
	C23.5,179.6,23.4,164.8,23.3,149.9z"/>
<path class="st11krh" d="M36.2,185.9c0,0.1,0.1,0.2,0.1,0.3c0.1,0,0.2-0.1,0.2-0.3c0-11.9,0-23.8,0-35.6c-0.1-0.1-0.2-0.3-0.2-0.4
	C36.3,161.8,36.2,173.9,36.2,185.9z"/>
<path class="st11krh" d="M31.2,152.3c0.1,0,0.4,0,0.6,0.4c0.4,0.6,0.3,1.5,0.3,1.6c0.1,12.9,0.2,25.7,0.2,38.6c-0.2-0.3-0.5-0.6-0.7-1
	C31.5,178.6,31.4,165.5,31.2,152.3z"/>
<path class="st11krh" d="M24.8,152.3c-0.1,0-0.4,0.2-0.6,0.6c-0.4,0.8-0.2,1.8-0.2,1.9c0,13.4,0,26.8,0.1,40.2c0.3-0.1,0.6-0.3,0.9-0.4
	C24.9,180.5,24.9,166.4,24.8,152.3z"/>
<path class="st11krh" d="M20.2,149.8c-0.1,0.3-0.2,0.6-0.2,0.9c0,12.8,0.1,25.6,0.1,38.4c0.2-0.2,0.3-0.5,0.5-0.7
	C20.4,175.5,20.3,162.6,20.2,149.8z"/>
<rect x="20.9" y="72.5" class="st4krh" width="14.3" height="2.4"/>
<path class="st12krh" d="M23.2,180.1c0-0.5,0-1,0-1.4c-0.2-0.2-0.4-0.5-0.6-0.9c-0.2-0.4-0.4-0.9-0.5-1.2c0-0.9-0.1-2.1,0.1-3.5
	c0.2-1.6,0.4-2.9,0.7-3.8c0.1-0.5,0.1-1,0.2-1.7c0-0.8,0-1.5,0-2c-0.4-0.1-0.8-0.2-1.3-0.3c0.1,0.7,0.1,1.8,0,3.1
	c-0.2,1.5-0.5,2.6-0.7,3.2c0,1.8,0,3.7,0.1,5.5c0.1,0.4,0.4,1.8,1.2,2.5C22.6,180,22.9,180.1,23.2,180.1z"/>
<path class="st7krh" d="M22,162.2c0.4-0.3,0.8-0.6,1.2-0.9c0-3.6,0-7.3,0-10.9c0.3-1,0.6-2.1,0.9-3.1c0.1-5.6,0.1-11.1,0.2-16.7
	c0,0-0.3-0.6-0.7-0.5c-0.3,0-0.5,0.5-0.5,0.5c-0.2,6.4-0.5,12.7-0.7,19.1C22.3,153.8,22.2,158,22,162.2z"/>
<path class="st13krh" d="M32.5,143c-0.3,0.1-0.6,0.1-0.9,0.2c0-23,0-46,0-69h0.9C32.4,97.1,32.4,120,32.5,143z"/>
<path class="st13krh" d="M35.4,141.8c-0.1,0.1-0.3,0.1-0.4,0.2c0-15.8,0-31.7-0.1-47.5c0.2,0,0.3,0,0.5,0
	C35.4,110.3,35.4,126.1,35.4,141.8z"/>
<path class="st13krh" d="M27.6,139c-0.2,0-0.4,0-0.6,0c0-14.8,0-29.5,0-44.3c0.2,0,0.4,0,0.6,0C27.6,109.5,27.6,124.2,27.6,139z"/>
<path class="st13krh" d="M21.4,142.4c-0.2-0.1-0.5-0.2-0.7-0.3c0-14.4,0-28.8,0-43.2c0.2,0,0.5,0,0.7,0C21.4,113.5,21.4,128,21.4,142.4
	z"/>
<rect x="26.9" y="74.2" class="st9krh" width="1.5" height="20.6"/>
<rect x="26.9" y="89" class="st10krh" width="1.5" height="0.4"/>
<rect x="26.9" y="89.7" class="st10krh" width="1.5" height="0.4"/>
<rect x="26.9" y="90.5" class="st10krh" width="1.5" height="0.4"/>
<rect x="26.9" y="91.4" class="st10krh" width="1.5" height="0.4"/>
<rect x="26.9" y="92.2" class="st10krh" width="1.5" height="0.4"/>
<rect x="26.9" y="92.9" class="st10krh" width="1.5" height="0.4"/>
<rect x="34.2" y="74.2" class="st9krh" width="1.5" height="20.4"/>
<rect x="34.2" y="88.8" class="st10krh" width="1.5" height="0.4"/>
<rect x="34.2" y="89.6" class="st10krh" width="1.5" height="0.4"/>
<rect x="34.2" y="90.3" class="st10krh" width="1.5" height="0.4"/>
<rect x="34.2" y="91.2" class="st10krh" width="1.5" height="0.4"/>
<rect x="34.2" y="92" class="st10krh" width="1.5" height="0.4"/>
<rect x="34.2" y="92.8" class="st10krh" width="1.5" height="0.4"/>
<rect x="20.1" y="74.2" class="st9krh" width="1.5" height="20.4"/>
<rect x="20.1" y="88.8" class="st10krh" width="1.5" height="0.4"/>
<rect x="20.1" y="89.6" class="st10krh" width="1.5" height="0.4"/>
<path class="st14krh" d="M24.5,127.3c0.2-5.8,0.2-12,0.1-18.7c-0.1-5-0.3-9.8-0.5-14.3c-0.3,0-0.7-0.1-1-0.1c0.2,5.2,0.3,10.6,0.4,16.2
	c0.1,6.2,0.1,12.1,0,17.7C23.7,127.9,24.1,127.6,24.5,127.3z"/>
<rect x="20.1" y="90.3" class="st10krh" width="1.5" height="0.4"/>
<rect x="20.1" y="91.2" class="st10krh" width="1.5" height="0.4"/>
<rect x="20.1" y="92" class="st10krh" width="1.5" height="0.4"/>
<rect x="20.1" y="92.8" class="st10krh" width="1.5" height="0.4"/>
<path class="st15krh" d="M24.8,131c0-1.7,0-3.4,0-5c-0.3,0.5-0.6,0.9-0.9,1.4c-0.3-0.3-0.6-0.6-1-0.9c0,1.5,0,3,0,4.5
	c0.3-0.2,0.6-0.5,0.9-0.7C24.1,130.5,24.4,130.8,24.8,131z"/>
<path class="st15krh" d="M24.5,95.8c0-1.7,0-3.4,0-5c-0.3,0.5-0.6,0.9-0.9,1.4c-0.3-0.3-0.6-0.6-1-0.9c0,1.5,0,3,0,4.5
	c0.3-0.2,0.6-0.5,0.9-0.7C23.8,95.3,24.1,95.6,24.5,95.8z"/>
<path class="st16krh" d="M23.7,28.7c-0.3,0.2-1,0.6-1.9,0.4c-0.9-0.2-1.5-0.9-1.8-1.3c-1.2-0.3-2.5-0.5-3.7-0.8
	c0.7-1.8,1.8-5.1,2.2-9.7c0.3-3.2,0.2-6,0-7.9c1.3,0,2.6,0,3.9,0c1,1.9,2.1,3.8,3.1,5.8c0,2,0,4.8-0.6,8
	C24.6,25.5,24.1,27.3,23.7,28.7z"/>
<path class="st17krh" d="M38.4,9c4.3,0,8.5-0.1,12.8-0.1c0,2.2,0,4.3,0,6.5c0.4,0,0.8,0,1.2,0c0.1,0.7,0.3,1.6,0.5,2.5
	c0.2,0.7,0.4,1.3,0.7,1.8c0.3,0.6,0.8,1.6,1.1,3.2c0.4,1.9,0.3,3.6,0.2,4.3c-5.4,0-10.8-0.1-16.2-0.1C38.6,21.1,38.5,15,38.4,9z"/>
<path class="st17krh" d="M16.6,9C12.4,9,8.1,8.9,3.8,8.9c0,2.2,0,4.3,0,6.5c-0.4,0-0.8,0-1.2,0c-0.1,0.7-0.3,1.6-0.5,2.5
	c-0.2,0.7-0.4,1.3-0.7,1.8c-0.3,0.6-0.8,1.6-1.1,3.2c-0.4,1.9-0.3,3.6-0.2,4.3c5.4,0,10.8-0.1,16.2-0.1C16.4,21,16.5,15,16.6,9z"/>
<path class="st18krh" d="M35.9,7.8c0.8,0,1.6,0,2.5,0c0.1,0.7,0.3,1.4,0.4,2.1c0,5.7,0,11.5-0.1,17.2c-1.1-3-2.1-5.9-3.2-8.9
	c0-3,0-6,0-9c0.1,0,0.2,0,0.3,0C35.9,8.7,35.9,8.2,35.9,7.8z"/>
<path class="st16krh" d="M32.6,9c1.1,0,2.1,0,3.2,0c0,2.8,0,5.5,0,8.3c0.4,1.5,0.8,3.2,1.3,5c0.5,1.8,1.1,3.4,1.6,4.8
	c-2.9-1-5.8-2-8.7-3c0-3.3,0.1-6.7,0.1-10c0.2-0.9,0.6-2,1.2-3.2C31.8,10,32.3,9.4,32.6,9z"/>
<path class="st19krh" d="M35.7,16.1c-0.5,0-1,0-1.5,0c0-0.9,0-1.8,0-2.7c0.5,0,1,0,1.4,0c0-0.3,0-0.6,0-0.9c-0.5,0-1.1,0-1.6,0
	c-0.3,0.7-0.6,1.3-0.8,2c0,1,0,2,0,3c0.2,0.2,0.4,0.4,0.6,0.6c0.6,0,1.2,0,1.9,0C35.8,17.4,35.7,16.7,35.7,16.1z"/>
<path class="st18krh" d="M19.2,7.9c-0.8,0-1.6,0-2.5,0c-0.1,0.4-0.2,0.8-0.3,1.2c-0.1,6-0.1,12-0.2,18c1.1-2.9,2.2-5.8,3.3-8.8
	c0-3,0-6,0-9c-0.1,0-0.2,0-0.3,0C19.2,8.8,19.2,8.3,19.2,7.9z"/>
<path class="st20krh" d="M18.3,72.6c6.3,0,12.5,0,18.8,0c0-16,0-32,0-48c0-0.2-0.2-2.1-1.2-2.9c-0.9-0.7-2-0.2-2.6,1.3
	c-1.2,0-2.5,0-3.7,0c0,2.3,0,4.5,0,6.8c-1.7,1-3.3,2-5,3c0-3.2,0-6.3,0-9.5c-0.7,0-1.5,0-2.2,0c-0.1,0.9-0.8,5.3-1.3,5.2
	c-0.6-0.1-0.7-5.4-0.7-6.2c-0.7,0-1.4,0-2.1,0C18.4,39,18.4,55.8,18.3,72.6z"/>
<path class="st15krh" d="M23.9,60.8c0-1.7,0-3.4,0-5c-0.3,0.5-0.6,0.9-0.9,1.4c-0.3-0.3-0.6-0.6-1-0.9c0,1.5,0,3,0,4.5
	c0.3-0.2,0.6-0.5,0.9-0.7C23.2,60.3,23.6,60.5,23.9,60.8z"/>
<path class="st21krh" d="M23.6,48.1c1.6-0.5,3.6-1.4,5.8-2.9c2.4-1.7,4.4-3.8,5.8-5.6c0-2.4,0-4.7,0-7.1c-0.1-0.5-0.3-1.5-0.8-2.2
	c-0.8-1.2-2.1-1.2-3.2,0.1c-0.8,0.9-2,1.8-3.4,2.5c-0.9,0.4-1.8,0.6-2.5,0.7c-0.2,0.5-0.6,1.2-1.1,1.8c-0.7,0.8-1.4,1-1.8,1.1
	c-0.5,0.6-1.1,1.5-1.7,2.8c-0.8,1.6-1.3,3.2-1.6,4.4c0,3,0,6,0,8.9c0.9-0.9,1.9-1.8,2.8-2.8c0-0.1-0.1-1.7,0.6-2.7
	c0.8-1.2,1.7-0.6,1.8-0.6c0.3,0.2,0.6,0.3,0.9,0.5C24.7,47.2,24.2,47.6,23.6,48.1z"/>
<rect x="30.8" y="38" class="st22krh" width="2.5" height="0.7"/>
<rect x="30.8" y="39.7" class="st22krh" width="2.5" height="0.7"/>
<rect x="30.8" y="41.2" class="st22krh" width="1.8" height="0.7"/>
<path class="st23krh" d="M30.4,44.4c-0.1,0.1-0.2,0.2-0.3,0.2c0-4.4,0-8.9,0-13.3c0.1-0.1,0.2-0.2,0.3-0.3C30.4,35.5,30.4,40,30.4,44.4
	z"/>
<path class="st23krh" d="M30.9,44c-0.1,0.1-0.2,0.2-0.3,0.2c0-4.4,0-8.9,0-13.3c0.1-0.1,0.2-0.2,0.3-0.3C30.9,35.1,30.9,39.5,30.9,44z"
	/>
<polygon class="st24krh" points="32.9,33.4 32,34.2 31.2,33.4 31.2,31.6 32.1,30.8 32.9,31.6 "/>
<path class="st25krh" d="M32.1,31.1c0.2-0.2,0.4-0.4,0.6-0.5c0.4-0.2,0.7-0.3,1-0.3c0.4,0.1,0.6,0.4,0.6,0.5c0.1,0.2,0.1,0.8,0.1,2
	c0,0.1,0,0.1,0,0.1c0.1,0.6-0.1,1.2-0.4,1.4c-0.3,0.2-0.6,0-0.8-0.4c0-0.2,0-0.5-0.1-0.9c-0.1-0.4-0.3-0.6-0.4-0.7
	C32.6,31.9,32.4,31.5,32.1,31.1z"/>
<rect x="30.9" y="34.3" class="st26krh" width="2.3" height="0.2"/>
<rect x="30.9" y="34.5" class="st20krh" width="2.3" height="0.2"/>
<rect x="30.9" y="34.7" class="st26krh" width="2.3" height="0.2"/>
<rect x="30.9" y="35" class="st20krh" width="2.3" height="0.2"/>
<rect x="30.9" y="35.2" class="st26krh" width="2.3" height="0.2"/>
<rect x="30.9" y="35.4" class="st20krh" width="2.3" height="0.2"/>
<ellipse class="st27krh" cx="34.7" cy="37.4" rx="0.3" ry="2.2"/>
<path class="st28krh" d="M26.6,37.2c1,0,1.9-0.1,2.9-0.1c0.1-0.2,0.3-0.7,0.3-1.5c0-0.8-0.1-1.7-0.3-2c-0.5-0.8-1.9-0.1-3.3,2.2
	c-0.1,0.4-0.1,0.9,0.1,1.2C26.4,37.1,26.5,37.1,26.6,37.2z"/>
<rect x="27.5" y="37.5" class="st29krh" width="2.1" height="7.4"/>
<rect x="21.7" y="38" class="st29krh" width="0.7" height="8.6"/>
<rect x="22.4" y="37.3" class="st29krh" width="0.4" height="4.5"/>
<rect x="22.4" y="41.3" class="st29krh" width="0.9" height="0.5"/>
<rect x="23" y="39.6" class="st29krh" width="0.3" height="2.2"/>
<rect x="22.9" y="39.6" class="st29krh" width="0.4" height="0.4"/>
<rect x="24.7" y="41.5" class="st29krh" width="0.3" height="2.3"/>
<rect x="25.5" y="41.8" class="st29krh" width="0.9" height="2.2"/>
<rect x="25.3" y="42.8" class="st29krh" width="0.2" height="1.2"/>
<rect x="26.1" y="39.4" class="st29krh" width="0.3" height="1.5"/>
<rect x="26.2" y="39.2" class="st29krh" width="0.5" height="0.4"/>
<rect x="26.6" y="39.4" class="st29krh" width="0.2" height="4.6"/>
<rect x="27" y="37.1" class="st29krh" width="0.3" height="7.7"/>
<rect x="24.2" y="37.7" class="st29krh" width="0.4" height="3.2"/>
<rect x="24.5" y="38.5" class="st29krh" width="0.4" height="2.4"/>
<rect x="24.8" y="39.1" class="st29krh" width="0.6" height="1.9"/>
<rect x="24" y="40.7" class="st29krh" width="0.4" height="1"/>
<rect x="21.1" y="48" class="st29krh" width="0.4" height="1.5"/>
<rect x="21.2" y="49" class="st29krh" width="0.8" height="0.5"/>
<rect x="21.8" y="47.6" class="st29krh" width="0.2" height="1.6"/>
<rect x="22" y="47.3" class="st29krh" width="0.3" height="0.3"/>
<path class="st30krh" d="M24.2,91.3c-0.1-10.2-0.3-20.4-0.4-30.6c-0.3-0.2-0.6-0.4-0.9-0.6c-0.2,0.1-0.3,0.3-0.5,0.4
	c0.1,10.3,0.3,20.7,0.4,31c0.3,0.2,0.5,0.5,0.8,0.7C23.8,91.9,24,91.6,24.2,91.3z"/>
<path class="st30krh" d="M25.3,46.8c-0.6,0.4-1.1,0.8-1.7,1.3c0.1,2.6,0.2,5.1,0.3,7.7c-0.3,0.5-0.6,0.9-0.9,1.4
	c-0.3-0.3-0.6-0.6-1-0.9c0-2.2,0-4.4,0-6.6c0-0.3,0-1.8,0.6-2.8C23.3,45.8,24.4,45.7,25.3,46.8z"/>
<rect x="35.2" y="44.2" class="st9krh" width="1.5" height="26.8"/>
<rect x="35.2" y="63.5" class="st10krh" width="1.5" height="0.5"/>
<rect x="35.2" y="64.6" class="st10krh" width="1.5" height="0.5"/>
<rect x="35.2" y="65.6" class="st10krh" width="1.5" height="0.5"/>
<rect x="35.2" y="66.7" class="st10krh" width="1.5" height="0.5"/>
<rect x="35.2" y="67.8" class="st10krh" width="1.5" height="0.5"/>
<rect x="35.2" y="68.7" class="st10krh" width="1.5" height="0.5"/>
<rect x="35.2" y="45.6" class="st10krh" width="1.5" height="0.5"/>
<rect x="35.2" y="46.6" class="st10krh" width="1.5" height="0.5"/>
<rect x="35.2" y="47.6" class="st10krh" width="1.5" height="0.5"/>
<rect x="35.2" y="48.7" class="st10krh" width="1.5" height="0.5"/>
<rect x="35.2" y="49.8" class="st10krh" width="1.5" height="0.5"/>
<rect x="35.2" y="50.8" class="st10krh" width="1.5" height="0.5"/>
<g>
	<path class="st20krh" d="M38.1,64.2c0-0.9-0.4-1.6-0.9-1.6v3.2C37.7,65.8,38.1,65.1,38.1,64.2z"/>
</g>
<g>
	<path class="st20krh" d="M17.4,64.8c0,0.9,0.4,1.6,0.9,1.6v-3.2C17.8,63.2,17.4,63.9,17.4,64.8z"/>
</g>
<path class="st17krh" d="M24.7,14c2,0,3.9,0,5.9,0c0,3.1,0,6.2,0,9.3c-0.3,0-0.7,0-1,0c0,2.2,0,4.4,0,6.6c-1.7,1-3.3,1.9-5,2.9
	C24.7,26.5,24.7,20.2,24.7,14z"/>
<path class="st23krh" d="M24.9,6.4c-0.1,2.5-0.3,5.1-0.4,7.6c-1-1.7-2-3.4-3-5.1c0.2-0.4,0.4-1,0.8-1.5C23.4,6.2,24.6,6.4,24.9,6.4z"/>
<path class="st23krh" d="M30.2,6.3c0.1,2.5,0.2,5.1,0.3,7.6c0.9-1.7,1.9-3.4,2.8-5.1c-0.1-0.4-0.4-1-0.8-1.5
	C31.6,6.1,30.5,6.2,30.2,6.3z"/>
<rect x="24.3" y="6.5" class="st31krh" width="6.8" height="8.1"/>
<path class="st32krh" d="M21.8,8.4c0-2.2,0-4.4,0-6.7c1.5-0.9,3.9-2.1,7-1.7C30.5,0.3,32,1,33.1,1.7c0,2.2,0,4.3,0,6.5
	c-1.5-0.7-3.6-1.4-6.1-1.3C24.8,7.1,23.1,7.7,21.8,8.4z"/>
</svg>
