<?xml version="1.0" encoding="utf-8"?>
<!-- Generator: Adobe Illustrator 25.2.3, SVG Export Plug-In . SVG Version: 6.00 Build 0)  -->
<svg version="1.1" id="Lag_1" xmlns="http://www.w3.org/2000/svg" xmlns:xlink="http://www.w3.org/1999/xlink" x="0px" y="0px"
	 viewBox="0 0 35 200" style="enable-background:new 0 0 35 200;" xml:space="preserve">
<style type="text/css">
	.st0lsh{fill:#777777;}
	.st1lsh{fill:#42413F;}
	.st2lsh{fill:#9C7134;}
	.st3lsh{fill:#161616;}
	.st4lsh{fill:#888988;}
	.st5lsh{fill:#222323;}
	.st6lsh{fill:#68672A;}
	.st7lsh{fill:#7A7A7A;}
	.st8lsh{fill:#141414;}
	.st9lsh{fill:#694A2D;}
	.st10lsh{fill:#696969;}
	.st11lsh{fill:#888989;}
	.st12lsh{fill:#727272;}
	.st13lsh{fill:#818484;}
	.st14lsh{fill:#8D8D8E;}
	.st15lsh{fill:#ADADAD;}
	.st16lsh{fill:#999998;}
	.st17lsh{fill:#9E9E9B;}
	.st18lsh{fill:#9E9E9E;}
	.st19lsh{fill:#878787;}
</style>
<path class="st0lsh" d="M31.8,8.9c-0.7-2.3-3.6-5-3.6-5c0,0-2-0.9-5.1-2.2c-0.4-0.5-0.9-0.9-1.3-1.4C21,0.2,20.1,0.1,19.3,0
	c-0.9,0.1-1.7,0.2-2.6,0.3c-0.4,0.5-0.9,0.9-1.3,1.4c-3.1,1.4-5.1,2.2-5.1,2.2c0,0-2.9,2.7-3.6,5c-0.5,1.7-0.2,4.6,3.6,9.3
	c0,2.2,0,4.5,0,6.7c3,1.6,6,3.2,9,4.9c3-1.6,6-3.2,9-4.9c0-2.2,0-4.5,0-6.7C32,13.5,32.3,10.6,31.8,8.9z"/>
<path class="st1lsh" d="M10.3,18.3c2.6-0.4,5.7-0.7,9.1-0.7c3.3,0,6.3,0.3,8.9,0.7c0,0.1,0,0.2,0,0.3c-2.6-0.4-5.6-0.7-8.9-0.7
	c-3.4,0-6.4,0.3-9.1,0.7C10.3,18.5,10.3,18.4,10.3,18.3z"/>
<path class="st1lsh" d="M10.2,4c2.6-0.4,5.7-0.8,9.1-0.8c3.3,0,6.3,0.3,8.9,0.7c0.1,0.1,0.2,0.2,0.3,0.3c-2.7-0.4-5.8-0.6-9.2-0.6
	c-3.4,0-6.6,0.2-9.4,0.6C10.1,4.1,10.2,4,10.2,4z"/>
<path class="st2lsh" d="M11,45c-0.1-2.5-0.1-5-0.2-7.5c1.3-0.8,2.6-1.6,3.9-2.4c3.1,0,6.2,0,9.3,0c1.4,1,2.9,2,4.3,2.9c0,2.5,0,5,0,7.5
	C22.6,45.4,16.8,45.2,11,45z"/>
<path class="st2lsh" d="M24.2,38.4h-9c0-3.6,0-7.2,0-10.8c0-0.2,0-0.5,0-0.7c3,0,6,0,9,0V38.4z"/>
<ellipse class="st2lsh" cx="19.7" cy="26.8" rx="4.5" ry="2.7"/>
<rect x="14.6" y="47.1" class="st3lsh" width="9.3" height="12.4"/>
<path class="st3lsh" d="M15.5,49.9C12,49.7,9.8,47.5,9.8,46c0.1-1.4,2.4-3.2,5.7-3.1c2.6,0,5.3-0.1,7.9-0.1c3.7,0.6,6.1,2.3,6.1,3.6
	c-0.1,1.3-2.6,2.6-6.1,2.8C20.8,49.4,18.1,49.7,15.5,49.9z"/>
<rect x="13.2" y="54.9" class="st3lsh" width="13.4" height="52.5"/>
<ellipse class="st4lsh" cx="19.9" cy="58.1" rx="9.3" ry="2.6"/>
<ellipse class="st3lsh" cx="19.9" cy="63.3" rx="9.3" ry="2.6"/>
<ellipse class="st4lsh" cx="19.8" cy="68.5" rx="9.3" ry="2.6"/>
<ellipse class="st4lsh" cx="20" cy="78.6" rx="9.3" ry="2.6"/>
<ellipse class="st3lsh" cx="20" cy="73.4" rx="9.3" ry="2.6"/>
<ellipse class="st4lsh" cx="20" cy="88.8" rx="9.3" ry="2.6"/>
<ellipse class="st3lsh" cx="19.8" cy="83.8" rx="9.3" ry="2.6"/>
<ellipse class="st4lsh" cx="20" cy="99" rx="9.3" ry="2.6"/>
<ellipse class="st3lsh" cx="19.8" cy="94" rx="9.3" ry="2.6"/>
<path class="st3lsh" d="M10.3,111.4c0-2.1,0-3.5,0-3.5l0,0c0,0,1.3-0.7,3.3-1.7c4.2,0,8.4,0,12.6,0c1.4,0.9,2.8,1.8,4.2,2.6
	c0,1.2,0,2.4,0,3.6C23.7,112,17,111.7,10.3,111.4z"/>
<rect x="3.2" y="112" class="st5lsh" width="2.7" height="35.5"/>
<rect x="5.9" y="112.4" class="st6lsh" width="4" height="35.1"/>
<rect x="3.2" y="112" class="st7lsh" width="6.7" height="18"/>
<g>
	<polygon class="st8lsh" points="6.6,124.4 8.6,122.1 4.6,122.1 	"/>
	<polygon class="st8lsh" points="4.6,119.2 8.6,119.2 6.6,116.9 	"/>
</g>
<rect y="112" class="st9lsh" width="3.2" height="35.5"/>
<rect x="10.9" y="173.3" class="st10lsh" width="19.2" height="9.9"/>
<path class="st10lsh" d="M29.8,174.1H11.1c-0.9,0-1.5-0.7-1.5-1.5v-60.5c0-0.9,0.7-1.5,1.5-1.5h18.6c0.9,0,1.5,0.7,1.5,1.5v60.5
	C31.3,173.4,30.6,174.1,29.8,174.1z"/>
<rect x="11" y="174.1" class="st1lsh" width="19.2" height="0.3"/>
<rect x="9.6" y="147.2" class="st1lsh" width="21.7" height="0.3"/>
<path class="st11lsh" d="M10.7,196.7c1.3,1,4.7,3.3,9.5,3.3c4.6,0,7.9-2.3,9.2-3.3c0-2.1,0-4.1-0.1-6.2c-6.2,0-12.4,0-18.6,0.1
	C10.7,192.7,10.7,194.7,10.7,196.7z"/>
<rect x="11.3" y="186.4" class="st12lsh" width="17.6" height="8.8"/>
<path class="st11lsh" d="M8.9,185.3c-0.1-1.3-0.3-2.7-0.4-4c0.8-0.5,1.5-1.1,2.3-1.6c1.9,1.1,4.8,2.4,8.6,2.7c4.8,0.3,8.6-1.4,10.7-2.5
	c1,1,2.1,2,3.1,2.9c-1,1.8-2.1,3.5-3.1,5.3c-3.8-0.2-7.8-0.2-11.9-0.1c-2.7,0.1-5.3,0.2-7.8,0.3C10,187.3,9.4,186.3,8.9,185.3z"/>
<path class="st13lsh" d="M34.7,185.7c0-1.1,0-2.3-0.1-3.4c-0.9,0-1.7,0.1-2.6,0.1c0,1-0.1,2-0.1,3C32.9,185.5,33.8,185.6,34.7,185.7z"
	/>
<path class="st14lsh" d="M31.3,180.9c0.6,0,1.1,0,1.7,0c0.6,0.5,1.1,1,1.7,1.4c-0.9,0-1.7,0.1-2.6,0.1
	C31.8,181.9,31.6,181.4,31.3,180.9z"/>
<path class="st13lsh" d="M6.1,182.4c0,1.1,0.1,2.3,0.1,3.4c0.9-0.3,1.7-0.5,2.6-0.8c-0.1-1-0.1-1.9-0.2-2.9
	C7.8,182.2,7,182.3,6.1,182.4z"/>
<path class="st14lsh" d="M8.2,180.8c-0.7,0.5-1.4,1.1-2.1,1.6c0.8,0,1.6,0,2.3,0c0.4-0.5,0.7-1,1.1-1.6C9.1,180.8,8.7,180.8,8.2,180.8z
	"/>
<rect x="17.4" y="188.9" class="st15lsh" width="6" height="6.5"/>
<path class="st16lsh" d="M28.3,193c0-2.2-0.1-4.4-0.1-6.5c1.5,0.2,2.9,0.3,4.4,0.5c0,2.1,0,4.2,0.1,6.3C31.2,193.1,29.8,193.1,28.3,193
	z"/>
<path class="st17lsh" d="M34.9,185.6c-0.8,0.5-1.5,1.1-2.3,1.6c0,2,0,4,0,5.9c0.8-0.6,1.6-1.1,2.3-1.7C35,189.6,34.9,187.6,34.9,185.6z
	"/>
<path class="st15lsh" d="M31.9,184.6c-1.2,0.6-2.4,1.2-3.6,1.9c1.5,0.3,3,0.6,4.4,0.9c0.7-0.6,1.5-1.1,2.2-1.7
	C33.9,185.3,32.9,184.9,31.9,184.6z"/>
<path class="st16lsh" d="M12.5,186.6c0,2.1-0.1,4.2-0.1,6.3c-1.4,0-2.8,0-4.3,0c-0.1-2.1-0.1-4.1-0.2-6.2
	C9.5,186.6,11,186.6,12.5,186.6z"/>
<path class="st17lsh" d="M5.7,191.5c0.8,0.4,1.7,0.9,2.5,1.3c0-1.9,0-3.9,0-5.8c-0.8-0.4-1.6-0.8-2.5-1.2
	C5.7,187.7,5.7,189.6,5.7,191.5z"/>
<path class="st15lsh" d="M8.6,184.6c-1,0.4-1.9,0.8-2.9,1.2c0.8,0.4,1.6,0.8,2.5,1.2c1.5-0.1,2.9-0.3,4.4-0.4
	C11.2,185.9,9.9,185.3,8.6,184.6z"/>
<path class="st18lsh" d="M24.1,189.3c-2.5,0-5,0-7.6,0c0-0.3,0-0.6,0-0.8c2.5,0,5,0,7.6,0C24.1,188.7,24.1,189,24.1,189.3z"/>
<path class="st19lsh" d="M24.2,194.5c-0.3,0.3-0.5,0.6-0.8,0.9c0-2,0-4.1,0-6.1c0.3-0.3,0.5-0.5,0.8-0.8
	C24.2,190.4,24.2,192.5,24.2,194.5z"/>
<path class="st19lsh" d="M16.5,194.6c0.3,0.3,0.6,0.5,0.9,0.8c0-2,0-4.1,0-6.1c-0.3-0.3-0.6-0.6-0.8-0.9
	C16.6,190.5,16.6,192.5,16.5,194.6z"/>
</svg>
