<?xml version="1.0" encoding="utf-8"?>
<!-- Generator: Adobe Illustrator 25.2.3, SVG Export Plug-In . SVG Version: 6.00 Build 0)  -->
<svg version="1.1" xmlns="http://www.w3.org/2000/svg" xmlns:xlink="http://www.w3.org/1999/xlink" x="0px" y="0px"
	 viewBox="0 0 300 300" style="enable-background:new 0 0 300 300;" xml:space="preserve">
<style type="text/css">
	.st0mwl{fill:#588443;}
	.st1mwl{fill:#38281D;}
	.st2mwl{fill:#875439;}
	.st3mwl{fill:#8F604D;}
	.st4mwl{fill:#4C3424;}
	.st5mwl{fill:#825716;}
</style>
<g id="Lag_1">
	<circle class="st0mwl" cx="150" cy="150.3" r="150"/>
</g>
<g id="Lag_2">
	<path class="st1mwl" d="M59.3,190.8c1.2,24.7,2.4,49.3,3.6,74c58.6,0,117.3,0,175.9,0c2.4-27.3,4.8-54.5,7.2-81.8
		C183.8,185.6,121.5,188.2,59.3,190.8z"/>
</g>
<g id="Lag_6">
	<g>
		<path class="st2mwl" d="M89.2,80.6c-11,24.7-22,49.4-33,74.1c-2,7.1-7.4,29.5,4.7,43.2c0.9,1,1.9,2,3.1,3c2.7,0.7,5.5,1.4,8.2,2.2
			c7.2,13.2,14.4,23.3,19.9,30.3c12.9,16.5,24.5,31.1,44.3,38.1c5.9,2.1,11,3,14.3,3.4c0-65.6,0-131.1,0-196.7
			C130.2,79,109.7,79.8,89.2,80.6z"/>
		<path class="st3mwl" d="M244.4,153.8c-12.7-26-25.4-51.9-38.2-77.9c-18.5,0.7-37,1.5-55.5,2.2v196.7c2.9-0.1,7.1-0.5,12-1.8
			c20.2-5.2,32.5-20,45.1-35.5c6.1-7.6,14.1-18.5,21.6-32.9c3.9-0.6,6.6-1.9,8.6-3.3C248.7,193.9,251.1,174.8,244.4,153.8z"/>
	</g>
</g>
<g id="Lag_5">
	<path class="st4mwl" d="M62.4,223.9C74,181.1,85.5,138.4,97.1,95.6c6.8-4.7,25.2-15.9,51.3-16.2c27.1-0.2,46.2,11.6,53,16.2
		c13.9,42.8,27.9,85.6,41.8,128.3c14.5-75.7-3-146-49.7-179.8c-9.8-7.1-23.9-14.8-43.5-19c-26.3,4.2-43.2,14.7-52.8,22.4
		C53.7,82.3,40.2,152.2,62.4,223.9z"/>
</g>
<g id="Lag_4">
	<path class="st5mwl" d="M67.7,184.8"/>
</g>
</svg>
