<?xml version="1.0" encoding="utf-8"?>
<!-- Generator: Adobe Illustrator 25.2.3, SVG Export Plug-In . SVG Version: 6.00 Build 0)  -->
<svg version="1.1" id="Lag_1" xmlns="http://www.w3.org/2000/svg" xmlns:xlink="http://www.w3.org/1999/xlink" x="0px" y="0px"
	 viewBox="0 0 35 200" style="enable-background:new 0 0 35 200;" xml:space="preserve">
<style type="text/css">
	.st0own{fill:#2D2D2D;}
	.st1own{opacity:0.53;fill:#111110;}
	.st2own{fill:#161616;}
	.st3own{fill:#5F5F5E;}
	.st4own{fill:#A8A7A6;}
	.st5own{fill:#929292;}
	.st6own{fill:#9C7034;}
	.st7own{opacity:0.56;fill:#444444;}
	.st8own{fill:#9E9B5A;}
	.st9own{fill:#424241;}
	.st10own{fill:#4A494A;}
	.st11own{fill:#8C8A4A;}
</style>
<rect x="6.9" y="147.9" class="st0own" width="24.8" height="26.3"/>
<rect x="8.2" y="147.9" class="st1own" width="1.2" height="26.3"/>
<rect x="11.4" y="147.9" class="st1own" width="1.2" height="26.3"/>
<rect x="20.8" y="147.9" class="st1own" width="1.2" height="26.3"/>
<rect x="23.9" y="147.9" class="st1own" width="1.2" height="26.3"/>
<rect x="27.2" y="147.9" class="st1own" width="1.2" height="26.3"/>
<rect x="14.6" y="147.9" class="st1own" width="1.2" height="26.3"/>
<rect x="17.7" y="147.9" class="st1own" width="1.2" height="26.3"/>
<g>
	<ellipse class="st2own" cx="25.9" cy="161" rx="5.4" ry="5.9"/>
	<ellipse class="st3own" cx="25.9" cy="161" rx="3" ry="3.2"/>
</g>
<rect x="30.1" y="147.9" class="st1own" width="1.2" height="26.3"/>
<path class="st4own" d="M6.9,172.8c3.5,0.6,7.6,1.1,12.1,1.1c4.8,0.1,9-0.2,12.7-0.7c0,2.1,0,4.2,0,6.3c0.7,0.1,1.8,0.3,2.5,1.1
	c0.8,0.9,0.7,1.8,0.7,6.2c0,3.7,0.1,4.4-0.5,5.4c-0.7,1.1-1.8,1.6-2.5,1.8c0.1,0.7,0.2,2.3-0.6,3.5c-0.8,1.2-2,1.5-2.8,1.7
	c-6.7,1.6-15.1,0.5-17.7,0.2c-0.7-0.1-1.2-0.2-1.6-0.2c-0.3-0.1-1.5-0.5-2.3-2c-0.9-1.7-0.4-3.4-0.3-3.6c-0.3-0.2-0.6-0.4-1-0.8
	c-1.8-1.9-1.7-4.8-1.7-6.7c0.1-2,0.1-3.9,1.5-5.3c0.6-0.6,1.2-0.9,1.7-1C7,177.5,6.9,175.1,6.9,172.8z"/>
<path class="st5own" d="M11.5,192.3H7c-0.9,0-1.6-0.7-1.6-1.6v-8c0-0.9,0.7-1.6,1.6-1.6h4.5c0.9,0,1.6,0.7,1.6,1.6v8
	C13.1,191.6,12.4,192.3,11.5,192.3z"/>
<path class="st5own" d="M32.1,192.3h-4.4c-0.9,0-1.6-0.7-1.6-1.6v-8c0-0.9,0.7-1.6,1.6-1.6h4.4c0.9,0,1.6,0.7,1.6,1.6v8
	C33.7,191.6,33,192.3,32.1,192.3z"/>
<path class="st5own" d="M21.6,191.8h-4.1c-0.9,0-1.6-0.7-1.6-1.6v-7c0-0.9,0.7-1.6,1.6-1.6h4.1c0.9,0,1.6,0.7,1.6,1.6v7
	C23.1,191.1,22.4,191.8,21.6,191.8z"/>
<rect x="13.2" y="22.4" class="st6own" width="10.6" height="13.5"/>
<rect x="10.6" y="16.5" class="st5own" width="16.5" height="5.9"/>
<rect x="6.8" y="6.3" class="st5own" width="24.1" height="10.9"/>
<rect x="5.3" y="4" class="st5own" width="26.4" height="2.8"/>
<path class="st5own" d="M34.2,4.2H3.4C3,4.2,2.6,3.8,2.6,3.4V0.8C2.6,0.4,3,0,3.4,0l30.7,0C34.6,0,35,0.4,35,0.8v2.5
	C35,3.8,34.6,4.2,34.2,4.2z"/>
<rect x="18.5" y="0" class="st7own" width="0.5" height="22.4"/>
<rect x="14.2" y="50.2" class="st8own" width="9.2" height="9.5"/>
<rect x="13.4" y="44.2" class="st8own" width="11" height="6"/>
<path class="st8own" d="M14.5,45.1c-0.1-0.2-0.3-0.8-0.9-1.2c-1-0.7-2.2-0.1-2.3-0.1c-1,0-1.9,0-2.9,0c0-0.6,0-1.3,0-1.9
	c0.7,0.2,1.4-0.3,1.4-0.9c0.1-0.5-0.2-1-0.8-1.2c0-1.8,0-3.6,0-5.4c0-0.1-0.1-0.3,0-0.5c0.1-0.2,0.3-0.2,0.5-0.2
	c0.5-0.1,0.7-0.1,1-0.1c0.6,0.1,6.7,0.1,16.2,0c0.3,0,1,0,1.5,0.1c0.1,0,0.3,0,0.3,0.2c0.1,0.2,0,0.5,0,0.5c0,1.8,0,3.5,0,5.3
	c-0.5-0.1-0.9,0.1-1.1,0.5c-0.1,0.2-0.1,0.4-0.1,0.6c0.1,0.5,0.8,0.9,1.8,1c0,0.7,0,1.3,0,2c-0.9,0-1.9,0-2.8,0
	c-0.2-0.1-0.4-0.3-0.8-0.4c-0.8-0.2-1.4,0.3-1.5,0.4c-0.3,0.4-0.6,0.7-0.9,1.1C20.3,45,17.4,45,14.5,45.1z"/>
<rect x="11.1" y="59.1" class="st9own" width="16" height="52.7"/>
<path class="st9own" d="M30,112.4H8.7c-0.2,0-0.3-0.1-0.3-0.3v-4.5c0-0.2,0.1-0.3,0.3-0.3H30c0.2,0,0.3,0.1,0.3,0.3v4.5
	C30.3,112.3,30.1,112.4,30,112.4z"/>
<ellipse class="st9own" cx="19.1" cy="62.3" rx="11.1" ry="2.6"/>
<ellipse class="st9own" cx="19.1" cy="67.6" rx="11.1" ry="2.6"/>
<ellipse class="st9own" cx="19" cy="72.8" rx="11.1" ry="2.6"/>
<ellipse class="st9own" cx="19.2" cy="77.7" rx="11.1" ry="2.6"/>
<ellipse class="st9own" cx="19.2" cy="82.9" rx="11.1" ry="2.6"/>
<ellipse class="st9own" cx="19" cy="88.2" rx="11.1" ry="2.6"/>
<ellipse class="st9own" cx="19.2" cy="93.1" rx="11.1" ry="2.6"/>
<ellipse class="st9own" cx="19" cy="98.4" rx="11.1" ry="2.6"/>
<ellipse class="st9own" cx="19.2" cy="103.4" rx="11.1" ry="2.6"/>
<path class="st5own" d="M6.9,148.1c3.2,0.7,7.1,1.2,11.4,1.3c5.1,0.1,9.6-0.5,13.2-1.3c0-12.2,0-24.4,0-36.6c-7.8,0-15.6,0-23.5,0
	c0,0.7,0,1.5,0,2.2c-1.6,0-3.2,0-4.9,0c0,12,0.1,23.9,0.1,35.9c1.2,0,2.4,0,3.6,0C6.9,149.1,6.9,148.6,6.9,148.1z"/>
<rect x="18.5" y="111.5" class="st10own" width="1.1" height="37.9"/>
<path class="st10own" d="M12,148.9c-0.3,0-0.6-0.1-0.9-0.1c0-11.5,0-23.1,0-34.6H12C12,125.8,12,137.4,12,148.9z"/>
<path class="st10own" d="M6.9,148.9c-0.3,0-0.6,0-0.8,0c0-11.6,0-23.2,0-34.8h0.8C6.8,125.8,6.8,137.4,6.9,148.9z"/>
<path class="st10own" d="M3.2,114.8c0-0.3,0-0.6,0-0.9c2.9,0,5.9,0,8.8,0v0.9C9,114.8,6.1,114.8,3.2,114.8z"/>
<path class="st10own" d="M3.3,149.1c0-0.2,0-0.4,0-0.6c1.2,0,2.3,0,3.5,0v0.6C5.6,149.1,4.5,149.1,3.3,149.1z"/>
<path class="st10own" d="M30.3,148.3c-0.2,0-0.4,0.1-0.6,0.1c0-12.3,0-24.6,0-36.9h0.6C30.3,123.8,30.3,136.1,30.3,148.3z"/>
<path class="st11own" d="M3.3,149.6c-1.1-0.9-2.2-1.7-3.3-2.6v-33.1h3.4C3.3,125.8,3.3,137.7,3.3,149.6z"/>
</svg>
