pkh<?xml version="1.0" encoding="utf-8"?>
<!-- Generator: Adobe Illustrator 25.2.3, SVG Export Plug-In . SVG Version: 6.00 Build 0)  -->
<svg version="1.1" id="Lag_1" xmlns="http://www.w3.org/2000/svg" xmlns:xlink="http://www.w3.org/1999/xlink" x="0px" y="0px"
	 viewBox="0 0 35 200" style="enable-background:new 0 0 35 200;" xml:space="preserve">
<style type="text/css">
	.st0pkh{fill:#838384;}
	.st1pkh{fill:#404D9C;}
	.st2pkh{fill:#424241;}
	.st3pkh{fill:#777777;}
	.st4pkh{fill:#2D2D2D;}
	.st5pkh{fill:#3F3F3F;}
	.st6pkh{fill:#D81718;}
	.st7pkh{fill:#AD1917;}
	.st8pkh{fill:#222323;}
	.st9pkh{fill:#747475;}
	.st10pkh{fill:#8B8B8E;}
	.st11pkh{fill:#AEAEAF;}
	.st12pkh{fill:#6E6F70;}
	.st13pkh{fill:#444444;}
</style>
<path class="st0pkh" d="M4.6,197.9c3,1,7,1.9,11.9,2c6,0.2,11-0.9,14.3-2c1,0.1,1.9-0.7,1.9-1.8c0-1-0.9-1.9-1.9-1.8
	c-8.8,0-17.6,0-26.5,0c-0.7,0.2-1.2,0.9-1.3,1.6C3,196.9,3.7,197.8,4.6,197.9z"/>
<rect x="5.4" y="173.1" class="st1" width="24.7" height="21.4"/>
<ellipse class="st1pkh" cx="17.7" cy="184.6" rx="17.2" ry="2.1"/>
<ellipse class="st1pkh" cx="17.6" cy="188.7" rx="17.2" ry="2.1"/>
<ellipse class="st1pkh" cx="17.9" cy="192.5" rx="17.2" ry="2.1"/>
<ellipse class="st1pkh" cx="17.6" cy="180.5" rx="17.2" ry="2.1"/>
<ellipse class="st1pkh" cx="17.9" cy="175.8" rx="17.2" ry="2.1"/>
<rect x="7.8" y="107.4" class="st2pkh" width="19.7" height="47.3"/>
<ellipse class="st3pkh" cx="17.6" cy="110.2" rx="13.7" ry="2.4"/>
<ellipse class="st2pkh" cx="17.6" cy="114.9" rx="13.7" ry="2.4"/>
<ellipse class="st3pkh" cx="17.5" cy="119.7" rx="13.7" ry="2.4"/>
<ellipse class="st2pkh" cx="17.8" cy="124" rx="13.7" ry="2.4"/>
<ellipse class="st3pkh" cx="17.8" cy="128.7" rx="13.7" ry="2.4"/>
<ellipse class="st2pkh" cx="17.5" cy="133.4" rx="13.7" ry="2.4"/>
<ellipse class="st3pkh" cx="17.8" cy="137.9" rx="13.7" ry="2.4"/>
<ellipse class="st2pkh" cx="17.5" cy="142.6" rx="13.7" ry="2.4"/>
<ellipse class="st3pkh" cx="17.8" cy="147.1" rx="12.1" ry="2.4"/>
<rect x="5.3" y="97.2" class="st0pkh" width="24.7" height="10.6"/>
<rect x="5.3" y="62.3" class="st0pkh" width="24.7" height="36.1"/>
<path class="st4pkh" d="M5.3,97.5c3.5,0.3,7.3,0.5,11.3,0.5c4.8,0,9.3-0.2,13.4-0.5c0-0.4,0-0.8,0-1.2c-4.1,0.3-8.5,0.5-13.2,0.5
	c-4.1,0-8-0.2-11.6-0.5C5.3,96.7,5.3,97.1,5.3,97.5z"/>
<ellipse class="st5pkh" cx="29" cy="91.4" rx="3.5" ry="4.6"/>
<ellipse class="st4pkh" cx="29.8" cy="91.5" rx="2.6" ry="3.7"/>
<ellipse class="st6pkh" cx="29.4" cy="71" rx="4.3" ry="4.9"/>
<ellipse class="st7pkh" cx="30.4" cy="71.2" rx="3.2" ry="3.9"/>
<path class="st8pkh" d="M4.6,60.1c-0.6,0-1-0.1-1.3-0.2c-2.1-0.7-2.7-3.3-2.8-3.6c-0.8-3-0.2-5.9,1.6-7.6c0.4-0.4,1.2-0.9,2.3-1.2
	C4.8,49,5,50.5,5.3,52.1C5.1,54.7,4.9,57.4,4.6,60.1z"/>
<path class="st5pkh" d="M5.6,60.1c-0.6,0-1-0.1-1.3-0.2c-2.1-0.7-2.7-3.3-2.8-3.6c-0.8-3-0.2-5.9,1.6-7.6c0.4-0.4,1.2-0.9,2.3-1.2
	C5.8,49,6,50.5,6.3,52.1C6.1,54.7,5.9,57.4,5.6,60.1z"/>
<path class="st0pkh" d="M31,60.2c-8.7,0-17.4,0-26.2,0c-0.2,0-0.4,0-0.5,0c0-4.4,0-8.7,0-13.1H31V60.2z"/>
<rect x="5.6" y="59.9" class="st4pkh" width="24" height="2.4"/>
<rect x="5.6" y="44.6" class="st4pkh" width="24" height="3"/>
<path class="st5pkh" d="M7.3,18.8c7,0,14,0,21.1,0c-0.6-3.9-1.2-7.8-1.8-11.6c-6.3,0-12.7,0-19-0.1C7.5,11,7.4,14.9,7.3,18.8z"/>
<path class="st5pkh" d="M5.6,30.7c0.3-1.5,0.6-3.1,1-4.6c7.6,0,15.1,0,22.7,0.1c0.2,1.8,0.5,3.6,0.7,5.4C21.8,31.3,13.7,31,5.6,30.7z"
	/>
<path class="st0pkh" d="M31.9,44.6c-9.4,0-18.7,0-28.1-0.1c0.7-4.8,1.4-9.5,2.2-14.3c8.3,0,16.6,0,25,0C31.2,35.1,31.5,39.8,31.9,44.6z
	"/>
<path class="st0pkh" d="M30.2,27.5c-8.1,0-16.3,0-24.4,0c0.5-2.9,0.9-5.9,1.4-8.8c7.1,0,14.1,0.1,21.2,0.1
	C28.9,21.7,29.5,24.6,30.2,27.5z"/>
<path class="st9pkh" d="M24,8.1c-0.2,0-0.4,0-0.7,0c1,12.2,2,24.4,3,36.6c0.7,0,1.3,0,2,0C27,32.5,25.7,20.2,24.4,8
	C24.2,8,24.1,8.1,24,8.1z"/>
<path class="st9pkh" d="M11.9,44.5c0.6-12.1,1.3-24.1,1.9-36.2c-0.3,0-0.6,0-0.9,0c-0.9,11.1-1.8,22.2-2.7,33.3c0.4,1,0.7,2.1,1.1,3.1
	C11.5,44.6,11.7,44.5,11.9,44.5z"/>
<polygon class="st10pkh" points="17.6,8.3 20.3,8.3 21,40.6 18.5,40.6 "/>
<path class="st11pkh" d="M20.8,44.8h-2.2c0-1.4,0-2.9,0-4.3c0.8,0,1.6,0,2.5,0C20.9,42,20.8,43.4,20.8,44.8z"/>
<path class="st10pkh" d="M11,8.3c0.7,0,1.4,0,2.2,0c-0.8,11-1.7,22-2.5,32.9c-0.7,0-1.3,0-2,0C9.5,30.2,10.2,19.3,11,8.3z"/>
<path class="st9pkh" d="M7.7,8.6c0.4,0,0.8,0,1.2,0C7.6,20.5,6.3,32.4,5,44.4c-0.7-1.3-1.5-2.6-2.2-3.9C4.5,29.8,6.1,19.2,7.7,8.6z"/>
<path class="st11pkh" d="M11.3,44.6c-0.8,0-1.5,0-2.3,0c-0.1-1.1-0.3-2.3-0.4-3.4c0.7,0,1.3,0,2,0C10.9,42.4,11.1,43.5,11.3,44.6z"/>
<path class="st11pkh" d="M5.6,44.6c-0.6,0-1.2,0-1.9,0C3.2,43.4,2.6,42.2,2,41c0.5,0,1.1,0,1.6,0C4.3,42.1,4.9,43.4,5.6,44.6z"/>
<path class="st10pkh" d="M32,44.7c0.4-1.2,0.9-2.4,1.3-3.7C31.5,30,29.7,18.9,27.9,7.9c-0.4,0-0.9,0-1.3,0C28.4,20.1,30.2,32.4,32,44.7
	z"/>
<path class="st10pkh" d="M6.9,8.5c0.3,0,0.6,0,1,0C6.5,19.3,5.1,30.1,3.6,40.9c-0.5,0-1.1,0-1.6,0C3.6,30.2,5.3,19.3,6.9,8.5z"/>
<path class="st10pkh" d="M24.1,8.2c0.6,0,1.1,0,1.7,0C27,19.1,28.2,30.1,29.4,41c-0.6-0.1-1.1-0.1-1.7-0.2
	C26.6,29.9,25.3,19.1,24.1,8.2z"/>
<path class="st11pkh" d="M26.4,44.7c0.8,0,1.6,0,2.4,0c0.2-1.2,0.4-2.5,0.6-3.7c-0.6-0.1-1.1-0.1-1.7-0.2
	C27.3,42.1,26.8,43.4,26.4,44.7z"/>
<path class="st9pkh" d="M31,44.6c-1.5-12.2-3.1-24.4-4.6-36.5c0.4,0,0.7,0,1.1,0c1.5,12.2,3,24.4,4.5,36.6C31.7,44.7,31.3,44.6,31,44.6
	z"/>
<path class="st0pkh" d="M6.9,8.8C6.8,8.5,6.6,7.3,7.2,6.2C7.5,5.8,7.7,5.6,8,5.4c2.7-0.2,5.5-0.4,8.5-0.4c4,0,7.8,0.2,11.2,0.5
	c0.1,1.1,0.2,2.1,0.3,3.2C21,8.7,14,8.8,6.9,8.8z"/>
<path class="st0pkh" d="M8,4.1C7.5,3.6,7.5,3.1,7.5,3.1c0,0-0.1-0.9,1-1.9c1.9-1.8,16.8-1,17.7-1C27.5,0.8,28.2,2,28,3
	c0,0.2-0.2,0.7-0.7,1.1C24.6,4.3,9.2,5.6,8,4.1z"/>
<path class="st4pkh" d="M27.7,4c-2.9-0.4-5.9-0.6-9.1-0.7c-3.8,0-7.4,0.2-10.8,0.7c0,0.5,0,1,0,1.6c3.3-0.4,6.8-0.7,10.6-0.7
	c3.3,0,6.4,0.3,9.3,0.7C27.7,5.1,27.7,4.6,27.7,4z"/>
<path class="st12pkh" d="M5.1,151.7c0.5-0.5,1-0.9,1.5-1.4c-0.6-1.5-1.2-2.9-1.8-4.4c3.1,1,7.6,2.1,13,2.1c5.6,0,10.1-1.1,13.3-2.1
	c-0.7,1.3-1.4,2.7-2.1,4c0.7,0.5,1.3,0.9,2,1.4c-2.8,1.2-7.7,2.9-14,2.8C11.9,154.1,7.7,152.8,5.1,151.7z"/>
<rect x="4.5" y="162.5" class="st0pkh" width="27" height="12.1"/>
<path class="st0pkh" d="M4.8,157.2c-0.7,1-2.4,3.5-1.6,5c0.3,0.6,0.9,0.8,1.2,0.8c3.2,1,23.4,0.4,26.3,0.3c0.3-0.1,1.4-0.6,1.9-1.8
	c0.6-1.4,0-3.3-1.6-4.4c-3.7,1-8.8,1.9-14.9,1.7C11.6,158.7,7.8,158,4.8,157.2z"/>
<path class="st0pkh" d="M4.8,158.6c0-2.4,0-4.8,0-7.2c3.1,1,7.8,2.2,13.6,2.2c5.3-0.1,9.6-1.1,12.6-2.2c0,2.4,0,4.9,0,7.3
	c-3.8,0.6-8.4,1.1-13.6,1.1C12.6,159.7,8.4,159.2,4.8,158.6z"/>
<rect x="17.7" y="149.7" transform="matrix(-1.836970e-16 1 -1 -1.836970e-16 181.2054 145.2694)" class="st13pkh" width="0.5" height="27"/>
<rect x="17.7" y="143.8" transform="matrix(-1.836970e-16 1 -1 -1.836970e-16 174.7755 138.9652)" class="st13pkh" width="0.5" height="26.2"/>
</svg>
