<?xml version="1.0" encoding="utf-8"?>
<!-- Generator: Adobe Illustrator 25.2.3, SVG Export Plug-In . SVG Version: 6.00 Build 0)  -->
<svg version="1.1" id="Lag_1" xmlns="http://www.w3.org/2000/svg" xmlns:xlink="http://www.w3.org/1999/xlink" x="0px" y="0px"
	 viewBox="0 0 35 200" style="enable-background:new 0 0 35 200;" xml:space="preserve">
<style type="text/css">
	.st0qgl{fill:#E52421;}
	.st1qgl{opacity:0.63;fill:#010202;}
	.st2qgl{fill:#010202;}
	.st3qgl{fill:#282828;}
	.st4qgl{fill:#6E6E6D;}
	.st5qgl{fill:#988F90;}
	.st6qgl{fill:#7A7272;}
</style>
<g>
	<path class="st0qgl" d="M4.9,75.5c-0.3-0.2-0.8-0.4-1.4-0.5c-0.9-0.2-1.9-0.2-2.2,0c-1.3,0.4-1.7,4.3-0.5,9.3c0.2,0.1,1.6,0.8,3,0.2
		c0.6-0.2,1-0.6,1.2-0.8C4.8,81,4.9,78.2,4.9,75.5z"/>
	<path d="M2.5,184.4c-0.1,0.4-0.2,1.1,0,2c0.1,0.5,0.3,0.9,0.5,1.2c0,0.2,0,0.5-0.3,0.9c-0.3,0.5-0.8,0.8-1,0.8
		c-0.3,0.6-0.7,1.4-0.8,2.4c-0.4,3.1,1.3,5.5,1.8,6.1c0.8,0.4,1.7,0.7,2.8,1.1c1.1,0.3,2.1,0.5,2.9,0.6c3.1,0.2,6.8,0.4,11.1,0.5
		c2.7,0.1,5.7,0.1,8.1-1.9c0.3-0.3,0.6-0.5,0.7-0.7c0.3-0.6,1.6-2.8,1-5.4c-0.3-1.1-0.8-2-1.2-2.5c-0.1-0.6-0.2-1.3-0.2-2
		c-0.1-0.7-0.1-1.4-0.1-2C19.4,185,11,184.7,2.5,184.4z"/>
	<path class="st1qgl" d="M30.2,52.2c0.3,7.7,0.3,15.7,0,24.1c-0.1,3.9-0.3,7.7-0.6,11.4c-0.8-1.6-1.6-3.1-2.5-4.7
		c-0.1-9.6-0.2-19.1-0.2-28.7C28,53.6,29.1,52.9,30.2,52.2z"/>
	<path class="st2qgl" d="M29.7,94.4c0,4.4,0,8.9-0.1,13.5c-0.1,2.7-0.2,5.4-0.3,8c-1-0.9-2-1.8-3-2.8c0.3-5.8,0.7-11.6,1-17.4
		C28.2,95.4,28.9,94.9,29.7,94.4z"/>
	<path class="st2qgl" d="M29.4,124.1c-0.1,6.4-0.2,12.9-0.4,19.3c-0.2,10.5-0.4,21.1-0.6,31.6c-1-1-2-2-3.1-3
		c-0.2-9.1-0.5-18.1-0.7-27.2c0.6-6.5,1.2-13.1,1.8-19.6C27.5,124.9,28.5,124.5,29.4,124.1z"/>
	<path class="st2qgl" d="M27.3,142.4c-0.4,0.5-3.3,3.5-2.9,8c0.3,3.1,2.1,5.1,2.7,5.7c0.8,0.3,2,0.5,3.4,0.6c1.3,0,2.3-0.2,3.1-0.4
		c0.5-1.3,1.2-3.3,1.3-6c0.1-2.8-0.6-5.1-1.1-6.4c-0.5-0.4-1.5-1-2.8-1.4C29.5,142.1,28.1,142.3,27.3,142.4z"/>
	<g>
		<path class="st3qgl" d="M16.3,161.3c0,2.2,0,4.3,0.1,6.5c-1.2,0.3-4,0.7-7.1-0.2c-1.7-0.5-3-1.3-3.8-1.9c-0.8-0.8-1-1.9-0.6-2.8
			c0.5-1.3,2-1.7,2.1-1.7c1.1,0.3,2.6,0.7,4.6,0.8C13.6,162,15.2,161.7,16.3,161.3z"/>
		<path class="st4qgl" d="M16.2,165.4c-1.2,0.3-2.8,0.5-4.7,0.3c-3.2-0.3-5.5-1.6-6.7-2.4c-0.1,0.4-0.1,0.7-0.1,0.9
			c0.2,1.3,1.6,2.1,2.7,2.7c0.6,0.3,2.6,1.3,5.5,1.4c1.4,0,2.6-0.1,3.4-0.3C16.2,167.1,16.2,166.2,16.2,165.4z"/>
	</g>
	<g>
		<path class="st3qgl" d="M16.8,155.2c0,2.2,0,4.3,0.1,6.5c-1.2,0.3-4,0.7-7.1-0.2c-1.7-0.5-3-1.3-3.8-1.9c-0.8-0.8-1-1.9-0.6-2.8
			c0.5-1.3,2-1.7,2.1-1.7c1.1,0.3,2.6,0.7,4.6,0.8C14,155.9,15.7,155.6,16.8,155.2z"/>
		<path class="st4qgl" d="M16.6,159.3c-1.2,0.3-2.8,0.5-4.7,0.3c-3.2-0.3-5.5-1.6-6.7-2.4c-0.1,0.4-0.1,0.7-0.1,0.9
			c0.2,1.3,1.6,2.1,2.7,2.7c0.6,0.3,2.6,1.3,5.5,1.4c1.4,0,2.6-0.1,3.4-0.3C16.6,161,16.6,160.1,16.6,159.3z"/>
	</g>
	<g>
		<path class="st3qgl" d="M16.7,148.8c0,2.2,0,4.3,0.1,6.5c-1.2,0.3-4,0.7-7.1-0.2c-1.7-0.5-3-1.3-3.8-1.9c-0.8-0.8-1-1.9-0.6-2.8
			c0.5-1.3,2-1.7,2.1-1.7c1.1,0.3,2.6,0.7,4.6,0.8C13.9,149.5,15.6,149.1,16.7,148.8z"/>
		<path class="st4qgl" d="M16.6,152.8c-1.2,0.3-2.8,0.5-4.7,0.3c-3.2-0.3-5.5-1.6-6.7-2.4C5,151.1,5,151.4,5,151.6
			c0.2,1.3,1.6,2.1,2.7,2.7c0.6,0.3,2.6,1.3,5.5,1.4c1.4,0,2.6-0.1,3.4-0.3C16.5,154.5,16.6,153.7,16.6,152.8z"/>
	</g>
	<g>
		<path class="st3qgl" d="M16.7,142.2c0,2.2,0,4.3,0.1,6.5c-1.2,0.3-4,0.7-7.1-0.2c-1.7-0.5-3-1.3-3.8-1.9c-0.8-0.8-1-1.9-0.6-2.8
			c0.5-1.3,2-1.7,2.1-1.7c1.1,0.3,2.6,0.7,4.6,0.8C13.9,142.9,15.6,142.6,16.7,142.2z"/>
		<path class="st4qgl" d="M16.5,146.3c-1.2,0.3-2.8,0.5-4.7,0.3c-3.2-0.3-5.5-1.6-6.7-2.4c-0.1,0.4-0.1,0.7-0.1,0.9
			c0.2,1.3,1.6,2.1,2.7,2.7c0.6,0.3,2.6,1.3,5.5,1.4c1.4,0,2.6-0.1,3.4-0.3C16.5,148,16.5,147.1,16.5,146.3z"/>
	</g>
	<g>
		<path class="st3qgl" d="M17.1,135.5c0,2.2,0,4.3,0.1,6.5c-1.2,0.3-4,0.7-7.1-0.2c-1.7-0.5-3-1.3-3.8-1.9c-0.8-0.8-1-1.9-0.6-2.8
			c0.5-1.3,2-1.7,2.1-1.7c1.1,0.3,2.6,0.7,4.6,0.8C14.3,136.2,16,135.8,17.1,135.5z"/>
		<path class="st4qgl" d="M16.9,139.6c-1.2,0.3-2.8,0.5-4.7,0.3c-3.2-0.3-5.5-1.6-6.7-2.4c-0.1,0.4-0.1,0.7-0.1,0.9
			c0.2,1.3,1.6,2.1,2.7,2.7c0.6,0.3,2.6,1.3,5.5,1.4c1.4,0,2.6-0.1,3.4-0.3C16.9,141.3,16.9,140.4,16.9,139.6z"/>
	</g>
	<g>
		<path class="st3qgl" d="M16.9,129.1c0,2.2,0,4.3,0.1,6.5c-1.2,0.3-4,0.7-7.1-0.2c-1.7-0.5-3-1.3-3.8-1.9c-0.8-0.8-1-1.9-0.6-2.8
			c0.5-1.3,2-1.7,2.1-1.7c1.1,0.3,2.6,0.7,4.6,0.8C14.1,129.7,15.8,129.4,16.9,129.1z"/>
		<path class="st4qgl" d="M16.7,133.1c-1.2,0.3-2.8,0.5-4.7,0.3c-3.2-0.3-5.5-1.6-6.7-2.4c-0.1,0.4-0.1,0.7-0.1,0.9
			c0.2,1.3,1.6,2.1,2.7,2.7c0.6,0.3,2.6,1.3,5.5,1.4c1.4,0,2.6-0.1,3.4-0.3C16.7,134.8,16.7,134,16.7,133.1z"/>
	</g>
	<g>
		<path class="st3qgl" d="M16.8,122.5c0,2.2,0,4.3,0.1,6.5c-1.2,0.3-4,0.7-7.1-0.2c-1.7-0.5-3-1.3-3.8-1.9c-0.8-0.8-1-1.9-0.6-2.8
			c0.5-1.3,2-1.7,2.1-1.7c1.1,0.3,2.6,0.7,4.6,0.8C14,123.2,15.7,122.8,16.8,122.5z"/>
		<path class="st4qgl" d="M16.7,126.6c-1.2,0.3-2.8,0.5-4.7,0.3c-3.2-0.3-5.5-1.6-6.7-2.4c-0.1,0.4-0.1,0.7-0.1,0.9
			c0.2,1.3,1.6,2.1,2.7,2.7c0.6,0.3,2.6,1.3,5.5,1.4c1.4,0,2.6-0.1,3.4-0.3C16.7,128.3,16.7,127.4,16.7,126.6z"/>
	</g>
	<g>
		<path class="st3qgl" d="M16.3,168.3c0,2.2,0,4.3,0.1,6.5c-1.2,0.3-4,0.7-7.1-0.2c-1.7-0.5-3-1.3-3.8-1.9c-0.8-0.8-1-1.9-0.6-2.8
			c0.5-1.3,2-1.7,2.1-1.7c1.1,0.3,2.6,0.7,4.6,0.8C13.5,168.9,15.2,168.6,16.3,168.3z"/>
		<path class="st4qgl" d="M16.2,172.3c-1.2,0.3-2.8,0.5-4.7,0.3c-3.2-0.3-5.5-1.6-6.7-2.4c-0.1,0.4-0.1,0.7-0.1,0.9
			c0.2,1.3,1.6,2.1,2.7,2.7c0.6,0.3,2.6,1.3,5.5,1.4c1.4,0,2.6-0.1,3.4-0.3C16.1,174,16.1,173.1,16.2,172.3z"/>
	</g>
	<g>
		<path class="st3qgl" d="M16.9,116.3c0,2.2,0,4.3,0.1,6.5c-1.2,0.3-4,0.7-7.1-0.2c-1.7-0.5-3-1.3-3.8-1.9c-0.8-0.8-1-1.9-0.6-2.8
			c0.5-1.3,2-1.7,2.1-1.7c1.1,0.3,2.6,0.7,4.6,0.8C14.1,117,15.8,116.6,16.9,116.3z"/>
		<path class="st4qgl" d="M16.7,120.3c-1.2,0.3-2.8,0.5-4.7,0.3c-3.2-0.3-5.5-1.6-6.7-2.4c-0.1,0.4-0.1,0.7-0.1,0.9
			c0.2,1.3,1.6,2.1,2.7,2.7c0.6,0.3,2.6,1.3,5.5,1.4c1.4,0,2.6-0.1,3.4-0.3C16.7,122,16.7,121.2,16.7,120.3z"/>
	</g>
	<g>
		<path class="st3qgl" d="M16.8,109.8c0,2.2,0,4.3,0.1,6.5c-1.2,0.3-4,0.7-7.1-0.2c-1.7-0.5-3-1.3-3.8-1.9c-0.8-0.8-1-1.9-0.6-2.8
			c0.5-1.3,2-1.7,2.1-1.7c1.1,0.3,2.6,0.7,4.6,0.8C14,110.4,15.7,110.1,16.8,109.8z"/>
		<path class="st4qgl" d="M16.7,113.8c-1.2,0.3-2.8,0.5-4.7,0.3c-3.2-0.3-5.5-1.6-6.7-2.4c-0.1,0.4-0.1,0.7-0.1,0.9
			c0.2,1.3,1.6,2.1,2.7,2.7c0.6,0.3,2.6,1.3,5.5,1.4c1.4,0,2.6-0.1,3.4-0.3C16.6,115.5,16.7,114.7,16.7,113.8z"/>
	</g>
	<g>
		<path class="st3qgl" d="M17.1,103.1c0,2.2,0,4.3,0.1,6.5c-1.2,0.3-4,0.7-7.1-0.2c-1.7-0.5-3-1.3-3.8-1.9c-0.8-0.8-1-1.9-0.6-2.8
			c0.5-1.3,2-1.7,2.1-1.7c1.1,0.3,2.6,0.7,4.6,0.8C14.4,103.7,16,103.4,17.1,103.1z"/>
		<path class="st4qgl" d="M17,107.1c-1.2,0.3-2.8,0.5-4.7,0.3c-3.2-0.3-5.5-1.6-6.7-2.4c-0.1,0.4-0.1,0.7-0.1,0.9
			c0.2,1.3,1.6,2.1,2.7,2.7c0.6,0.3,2.6,1.3,5.5,1.4c1.4,0,2.6-0.1,3.4-0.3C17,108.8,17,107.9,17,107.1z"/>
	</g>
	<g>
		<path class="st3qgl" d="M17.4,96.4c0,2.2,0,4.3,0.1,6.5c-1.2,0.3-4,0.7-7.1-0.2c-1.7-0.5-3-1.3-3.8-1.9c-0.8-0.8-1-1.9-0.6-2.8
			c0.5-1.3,2-1.7,2.1-1.7c1.1,0.3,2.6,0.7,4.6,0.8C14.6,97.1,16.3,96.7,17.4,96.4z"/>
		<path class="st4qgl" d="M17.2,100.5c-1.2,0.3-2.8,0.5-4.7,0.3c-3.2-0.3-5.5-1.6-6.7-2.4c-0.1,0.4-0.1,0.7-0.1,0.9
			c0.2,1.3,1.6,2.1,2.7,2.7c0.6,0.3,2.6,1.3,5.5,1.4c1.4,0,2.6-0.1,3.4-0.3C17.2,102.2,17.2,101.3,17.2,100.5z"/>
	</g>
	<g>
		<path class="st3qgl" d="M17.7,89.8c0,2.2,0,4.3,0.1,6.5c-1.2,0.3-4,0.7-7.1-0.2c-1.7-0.5-3-1.3-3.8-1.9c-0.8-0.8-1-1.9-0.6-2.8
			c0.5-1.3,2-1.7,2.1-1.7c1.1,0.3,2.6,0.7,4.6,0.8C14.9,90.5,16.6,90.2,17.7,89.8z"/>
		<path class="st4qgl" d="M17.5,93.9c-1.2,0.3-2.8,0.5-4.7,0.3c-3.2-0.3-5.5-1.6-6.7-2.4c-0.1,0.4-0.1,0.7-0.1,0.9
			c0.2,1.3,1.6,2.1,2.7,2.7c0.6,0.3,2.6,1.3,5.5,1.4c1.4,0,2.6-0.1,3.4-0.3C17.5,95.6,17.5,94.7,17.5,93.9z"/>
	</g>
	<path class="st5qgl" d="M31.1,6.1c0.4-0.3,1-1,1.4-2c0.2-0.5,0.3-0.9,0.3-1.3c-0.1-0.1-0.1-0.2-0.2-0.3c-0.8-1.1-2.2-1.5-3-1.6
		c-5.1-0.8-11.1-1.2-17.7-0.8c-2.6,0.1-5,0.4-7.2,0.7C3,1.6,1.8,2.4,1.8,2.6c0,0.1,0,0.2,0,0.2C1.9,3,2.1,3.2,2.1,3.2
		C2.3,3.6,2.4,4,2.6,4.4C3,5.1,3.4,5.7,3.8,6.2C12.9,6.2,22,6.1,31.1,6.1z"/>
	<path class="st3qgl" d="M18.2,88.9c-2.8,0.2-6.3,0-10.2-1.4c-0.7-0.3-1.5-0.6-2.1-0.9c-0.4-0.8-0.8-1.7-1.2-2.5
		c-0.4-0.1-0.7-0.3-1.1-0.4c-0.3-1.2-0.5-3-0.3-5c0.1-1.3,0.4-2.4,0.6-3.3c0.2,0,0.4-0.1,0.5-0.1c1.1-0.5,1.2-2.1,1.2-2.2
		c-0.2-0.3-0.5-0.7-0.7-1.3C4.8,71,4.8,70.4,4.8,70c0-1.1,0.1-2.1,0.1-3.2c0,0-0.2-0.4,0.1-0.7c0.2-0.2,0.5-0.3,0.8-0.3
		C5.9,65.4,6,65,6,64.5c0,0,0.1-0.3,0-0.5c-0.1-0.2-0.3-0.3-0.4-0.3c-0.6-0.2-1-0.8-1-1.4c0-0.6,0.4-1.2,1.1-1.4
		c0-0.1,0.4-0.6,0.3-1.2c-0.1-0.5-0.6-0.9-1.1-1c-0.4-0.7-0.3-1.5,0.1-2c0.3-0.5,0.8-0.6,1-0.7c0,0,0.5-0.6,0.2-1.3
		c-0.2-0.5-0.6-0.8-1.1-0.9c0,0-0.6-1-0.1-1.9c0.3-0.5,0.8-0.8,1-0.8c0-0.1,0.4-0.7,0.1-1.4C5.7,49,5.1,48.8,5,48.8
		c-0.4-0.6-0.4-1.3,0-1.8c0.3-0.5,0.8-0.6,0.9-0.7c0.3-0.4,0.4-0.9,0.2-1.4c-0.3-0.6-0.9-0.7-1-0.7c0-0.1-0.6-1,0-1.9
		c0.3-0.5,0.8-0.7,1-0.8c0.3-0.4,0.4-0.9,0.2-1.4C6,39.7,5.5,39.4,5,39.4c0-1.6-0.1-3.2-0.1-4.8c0-0.2,0.1-0.3,0.1-0.4
		c0.5-0.9,1.6-1.1,1.8-1.1c-1.4-2.5-2.7-5-4.1-7.6c-0.1-2.6-0.1-5.2-0.2-7.8C4,16.8,5.4,15.9,6.8,15c0-0.1,0-0.3-0.1-0.6
		C6.4,14,5.9,14,5.9,14c-0.1-0.1-0.6-0.8-0.5-1.7c0.1-0.6,0.4-1,0.6-1.1c0.1-0.1,0.2-0.3,0.1-0.6C6,10.2,5.7,9.9,5.3,9.8
		c0-0.1-0.3-0.7,0-1.3c0.3-0.6,0.8-0.8,0.9-0.9c0.1-0.1,0.2-0.3,0.1-0.5C6.3,7,6,6.9,5.8,6.9C4,6.5,3.6,6.2,3.6,6
		c0-1.1,9.1-2.4,17.9-1.6c4,0.4,7.3,1.1,9.6,1.7c-0.9,0.3-1.8,0.6-2.7,0.8c0,0-0.2,0.2-0.2,0.5c0.1,0.2,0.4,0.4,0.8,0.3
		c0.1,0.2,0.3,0.8,0.2,1.6c-0.2,0.9-0.8,1.5-0.9,1.6c0.9,0.4,1.4,1.3,1.2,2.1c-0.2,1-1.2,1.4-1.3,1.5c-0.1,0.3,0,0.6,0,0.8
		c0.3,1.1,1.6,1.9,3.2,2.2c0.4,1.4,1.1,4.5,0.1,8.3c-1,3.8-3.1,6.2-4.1,7.2c0.7-0.1,1.4,0.2,1.7,0.7c0.3,0.5,0.1,1.1,0.1,1.2
		c0,1.9-0.1,3.8-0.1,5.7C25.4,56.8,21.8,72.8,18.2,88.9z"/>
	<path class="st6qgl" d="M2.3,174.6c0,3.4,0.1,6.8,0.1,10.3c0.1,0.5,0.3,0.8,0.5,1c1.2,1.5,3.5,1.3,3.7,1.3c4.8,1.1,11.1,1.7,18.1,0.1
		c1.2-0.3,2.3-0.6,3.3-0.9c0.1-3.9,0.3-7.8,0.4-11.7c-0.3-0.3-0.7-0.7-1-1.2c-0.8-1.5-0.5-3-0.4-3.5c0.2-4.6,0.4-9.2,0.6-13.8
		c-0.6-0.7-2.3-2.8-2.5-6c-0.3-4.1,2.2-6.9,2.7-7.5c-0.1-4.8-0.1-9.7-0.2-14.5c0-0.5,0.1-1.6,1-2.6c0.3-0.3,0.5-0.5,0.8-0.7
		c0-3.1-0.1-6.1-0.1-9.2c-0.3-0.3-0.7-0.8-1-1.4c-0.6-1.2-0.5-2.4-0.4-2.9c0-4.2-0.1-8.5-0.1-12.7c0-0.5,0-2.3,1.2-3.4
		c0.2-0.2,0.4-0.3,0.6-0.4c0-2.6-0.1-5.1-0.1-7.7c-0.3-0.4-0.6-0.8-0.9-1.5c-0.5-1.1-0.5-2.2-0.4-2.7c-0.1-9.1-0.2-18.2-0.3-27.3
		c0.6-1,1.2-2.1,1.7-3.1c0.2-0.1,0.4-0.1,0.6-0.2c0-3.9-0.1-7.9-0.1-11.8c-1-0.3-2.3-0.6-3.8-0.5c-5.1,0.3-8.1,4.6-8.6,5.3
		c-2.5,3.1-5.3,7.2-7.7,12.4c-1.5,3.3-2.6,6.4-3.3,9.2c0,5.7,0.1,11.5,0.1,17.2c0.2,0.2,0.5,0.4,1,0.6c0.4,0.1,0.7,0.2,1,0.2
		c-0.1-0.3-0.4-1-0.3-1.9c0.1-0.6,0.3-1.1,0.4-1.4c1.5-1.8,3.9-2.5,5.7-1.7c1.6,0.7,2.2,2.3,2.4,2.7c-0.4,29.6-0.7,59.2-1.1,88.8
		c0,0.2,0.1,2-1.3,3.2c-1.1,0.9-2.5,0.9-2.7,0.8c-1.8,0-4-0.1-6.5-0.8c-0.7-0.2-1.4-0.4-2-0.7c-0.1,0-0.4,0.1-0.7,0.2
		C2.5,174.3,2.4,174.5,2.3,174.6z"/>
</g>
</svg>
